<?xml version="1.0" encoding="UTF-8" standalone="no"?>
<!DOCTYPE svg PUBLIC "-//W3C//DTD SVG 20010904//EN" "http://www.w3.org/TR/2001/REC-SVG-20010904/DTD/svg10.dtd">
<svg version="1.1" xmlns="http://www.w3.org/2000/svg" viewBox="0 0 7383.063597 5711.957694">
	<g transform="translate(-942.936403,6265.944336) scale(1,-1)" fill="#000" stroke="none">
		<title>Lord Baden Powell’s Morse Code Mnemonic Chart</title>
		<desc>Scouting founder’s Morse Code mnemonics from his 1918 Girl Guiding Handbook, https://en.wikipedia.org/wiki/File:Morse_Code_Mnemonic_chart_from_Girl_Guides_handbook_1916.jpg</desc>

		<path d="M5790 6205l-25-25-10 0-10 0-8-7-7-8 0-10 0-10 5-5c5-5 5-5 5-10l0-5 15-15c8-8 17-17 20-19 10-8 6-12-14-11l-16 0-7-7-8-8 0-30 0-30 5-5c5-5 5-5 5-10 0-8 2-10 15-10l10 0 8 7 7 8 0 35 0 35 2 3c8 7 28 2 28-8l0-5 40-40 40-40 0-5c0-7 3-10 10-10 8 0 20-12 20-20l0-5 10-10 10-10 0-5 0-5 25-25 25-25 0-5c0-7 3-10 10-10 8 0 20-12 20-20 0-7 3-10 10-10 4 0 5 0 9-4 5-7 7-6 14 2 4 3 13 13 22 22l15 15 0 5 0 5 10 10c9 9 10 10 10 14 0 6 1 7 5 10 5 3 5 7 1 10-5 5-6 6-6 11l-1 6-30 30-29 29 0 5 0 5-15 15-15 15 0 5c0 5 0 5-5 10-5 5-5 5-5 10 0 7-3 10-10 10l-5 0-13 12-12 13 0 5 0 5-35 35-35 35 0 5c0 8-12 20-20 20-7 0-10 3-10 10l0 5-12 13-13 12-5 0c-5 0-6 0-10 5-4 5-5 5-10 5l-5 0-25-25z"/>
		<path d="M3970 6185l-5-5-25 0-25 0-8-7-7-8 0-10c0-13-2-15-10-15l-5 0-10-10-10-10-5 0c-7 0-10-3-10-10 0-7-3-10-10-10-8 0-10-2-10-15 0-14 1-15 15-15l10 0 20 20 20 20 5 0c12 0 15-11 5-20l-5-5 0-10c0-13 2-15 10-15 5 0 5 0 10-5l5-5 40 0 40 0 5-5 5-5 10 0 10 0 5 5c4 5 5 5 10 5 5 0 6 0 10-5l5-5 30 0 30 0 5 5 5 5 50 0 50 0 8 7 7 8 0 25 0 25 5 5 5 5 0 20c0 24 0 25-10 25-5 0-5 0-10 5l-5 5-20 0-20 0-5 5-5 5-10 0-10 0-5-5-5-5-30 0-30 0-5 5-5 5-55 0-55 0-5-5z"/>
		<path d="M6197 6173l-7-8 0-35 0-35 2-3c3-2 3-2 18-2l15 0 4 3c1 2 4 5 6 6 5 4 5 8 1 11-6 4-6 5-6 15l0 10 5 5 5 5 0 10 0 10-7 8-8 7-10 0-10 0-8-7z"/>
		<path d="M3145 6130l-10-10-5 0-5 0-28-27-27-28 0-5 0-5-10-10-10-10 0-10 0-10-5-5c-5-5-5-5-5-10 0-5 0-5-5-10l-5-5 0-30 0-30 10-10 10-10 0-15 0-15 15-15 15-15 0-5c0-7 3-10 10-10l5 0 10-10 10-10 5 0c5 0 5 0 10-5l5-5 10 0 10 0 5-5 5-5 55 0 55 0 5-5 5-5 10 0 10 0 8 7 7 8 0 10 0 10-5 5-5 5 0 50 0 50 5 5c9 8 8 12-2 22l-8 8-30 0-30 0-5-5c-5-5-5-5-10-5-8 0-10-2-10-15 0-14 1-15 15-15l10 0 13-12 12-13 0-10 0-10-5-5c-5-5-5-5-5-10 0-8-12-20-20-20-5 0-5 0-10-5l-5-5-10 0-10 0-5 5-5 5-15 0-15 0-5 5-5 5-10 0-10 0-13 12-12 13 0 5c0 5 0 5-5 10l-5 5 0 25 0 25-5 5-5 5 0 10 0 10 5 5 5 5 0 10 0 10 5 5c5 5 5 5 5 10 0 5 0 5 5 10 5 5 5 5 5 10l0 5 12 13 13 12 5 0c5 0 5 0 10 5 5 5 5 5 10 5 5 0 5 0 10 5l5 5 25 0 25 0 8-7c7-8 7-8 7-13 0-8 12-20 20-20l5 0 10-10 10-10 10 0c14 0 15 1 15 15 0 10 0 11 6 15 5 3 4 7-1 11-4 2-5 4-5 10 0 4-1 5-12 17l-13 12-5 0-5 0-15 15-15 15-50 0-50 0-10-10z"/>
		<path d="M4982 6078l-2-3 0-135 0-135 7-8 8-7 15 0c15 0 15 0 18 2l2 3 0 96c0 73 0 95 1 97 3 3 6 1 12-6 4-3 16-16 27-27l20-20 0-5 0-5 10-10 10-10 0-5 0-5 20-20 20-20 0-5 0-5 15-15 15-15 0-5c0-8 12-20 20-20 7 0 10-3 10-10 0-10 1-10 25-10l20 0 8 7 7 8 0 130 0 130-5 5c-5 5-5 5-5 10 0 8-12 20-20 20-7 0-20-12-20-19 0-6-1-8-5-10-5-4-6-8-1-11 6-4 6-1 6-60l0-55-5-5-5-5 0-15c0-16 0-16 6-20 5-3 4-7-3-13-9-9-13-8-13 2l0 6-20 20-20 20 0 5 0 5-20 20-20 20 0 5 0 5-52 53-53 52-15 0c-15 0-15 0-18-2z"/>
		<path d="M6197 6042c-7-7-7-7-7-12 0-5 0-5-5-10l-5-5 0-25 0-25 5-5 5-5 0-15c0-21-1-20 20-20 15 0 15 0 18 2l2 3 0 55 0 55-7 7-8 8-5 0c-5 0-6 0-13-8z"/>
		<path d="M2180 6015l-5-5-10 0-10 0-13-12-12-13 0-5c0-5 0-5-5-10l-5-5 0-25 0-25 15-15 15-15 0-6c0-7 0-7 6-10 2-1 5-3 6-5l3-4 10 0 10 0 5 5c5 5 5 5 10 5 5 0 6 0 10 5l4 5 10 0c16 1 20-3 10-12-8-7-7-10 6-23l10-10 0-15c0-21-1-20 20-20l15 0 4 3c1 2 4 5 6 6 5 4 5 8 1 11-2 2-6 6-10 9l-6 6 0 10 0 10-15 15-15 15 0 5c0 5 0 5 5 10l5 5 0 10 0 10 10 10 10 10 0 10 0 10-10 10-10 10 0 5c0 8-2 10-15 10l-10 0-5 5c-5 5-5 5-10 5-5 0-5 0-10 5l-5 5-10 0-10 0-5-5z"/>
		<path d="M3787 6013c-7-8-7-8-7-13 0-5 0-5-5-10l-5-5 0-10 0-10 7-8 8-7 10 0 10 0 8 7 7 8 0 25 0 25-2 3c-3 2-4 2-13 2l-10 0-8-7z"/>
		<path d="M4197 5942c-7-7-7-7-7-12 0-5 0-5 7-12l8-8 15 0 15 0 5 5 5 5 30 0 30 0 3 2c5 5 4 11-5 20l-8 8-45 0-45 0-8-8z"/>
		<path d="M5737 5943l-7-8 0-10 0-10 5-5 5-5 0-10 0-10-5-5c-5-5-5-5-5-10l0-5 12-12 13-13 5 0c5 0 5 0 13 8l7 7 0 35 0 35-5 5c-5 5-5 5-5 10 0 8-2 10-15 10l-10 0-8-7z"/>
		<path d="M7955 5940l-10-10-5 0c-5 0-5 0-13-7l-7-8 0-30 0-30 5-5c5-5 5-5 5-10 0-7 3-10 10-10 4 0 6 0 8-2 2-2 2-4 2-8 0-4 0-6 2-8l3-2 25 0 25 0 13 12 12 13 0 10 0 10 5 5 5 5 0 25 0 25-7 8-8 7-10 0-10 0-5 5c-5 5-5 5-10 5-5 0-6 0-10 5-4 5-5 5-10 5l-5 0-10-10z"/>
		<path d="M6132 5948c-1-1-4-4-7-7l-5-6 0-10 1-10 6-7 7-8 6 0 5 0 8 8 7 7 0 10c0 12-2 15-10 15-4 0-5 0-9 5-4 4-6 5-9 3z"/>
		<path d="M7599 5945c-4-5-5-5-9-5l-5 0-13-12-12-13 0-5c0-5 0-5-5-10l-5-5 0-20 0-20 17-18 18-17 20 0 20 0 5 5c5 5 5 5 10 5l5 0 13 12 12 13 0 5c0 5 0 5 5 10l5 5 0 15 0 15-7 8c-8 7-8 7-13 7-5 0-5 0-10 5l-5 5-10 0c-11 0-9-1-22 12-7 8-9 9-14 3z"/>
		<path d="M3772 5908l-2-3 0-30 0-30 12-12 13-13 5 0c15 0 25 20 15 30l-5 5 0 25 0 25-2 3c-3 2-3 2-18 2-15 0-15 0-18-2z"/>
		<path d="M4302 5898c-2-2-2-4-2-8 0-5 0-5-5-10l-5-5 0-20c0-21 0-21-6-25-5-3-4-7 1-11 4-2 5-4 5-10 0-7 13-19 20-19 5 0 5 0 13 8l7 7 0 45 0 45-2 3c-3 2-4 2-13 2-9 0-10 0-13-2z"/>
		<path d="M6177 5892l-7-7 0-10 0-10 5-5 5-5 0-20 0-20-5-6c-9-10-10-10-16-3l-4 4-10 0-10 0-15-15-15-15-5 0c-15 0-26-21-15-30 8-7 8-14 0-19-5-4-6-8-1-11 11-9 16-15 16-20 0-7 3-10 10-10l5 0 13-13c7-7 15-16 19-19 8-9 8-9 16 0 4 3 8 8 9 9l3 3 15 0 15 0 8 7 7 8 0 10 0 10 5 5 5 5 0 10 0 10-5 5-5 5 0 25 0 25 5 5 5 5 0 10 0 10-5 5-5 5 0 20 0 20-12 12-13 13-5 0c-5 0-6 0-13-8z"/>
		<path d="M1160 5875c-4-5-5-5-10-5l-5 0-13-12-12-13 0-5c0-5 0-5-5-10-5-5-5-5-5-10 0-5 0-5-5-10l-5-5 0-10 0-10-10-10-10-10 0-5c0-5 0-5-5-10-5-5-5-5-5-10 0-5 0-5-5-10-5-5-5-5-5-10l0-5-10-10-10-10 0-10 0-10-5-5c-5-5-5-5-5-10 0-5 0-5-5-10l-5-5 0-10 0-10-10-10-10-10 0-10 0-10-5-5c-5-5-5-5-5-10 0-5 0-5-5-10-9-8-8-12 2-22 10-11 16-11 23-3 4 5 5 5 10 5 7 0 10 3 10 10 0 7 3 10 10 10l5 0 13 12 12 13 0 10c0 9 0 10 2 13l3 2 40 0 40 0 5 5 5 5 35 0 35 0 5-5c5-5 5-5 10-5 8 0 20-12 20-20 0-5 0-5 5-10l5-5 0-10 0-10 5-5c5-5 5-5 5-10 0-5 0-5 7-13l8-7 15 0c20 0 20 0 20 15l0 10-5 5c-5 5-5 5-5 10 0 5 0 5-5 10-5 5-5 5-5 10 0 5 0 5-5 10l-5 5 0 10 0 10-10 10-10 10 0 10 0 10-5 5c-5 5-5 5-5 10 0 5 0 5-5 10-5 5-5 5-5 10 0 5 0 5-5 10-5 5-5 5-5 10 0 5 0 5-5 10-5 5-5 5-5 10 0 5 0 5-5 10l-5 5 0 10 0 10-10 10-10 10 0 10 0 10-10 10-10 10 0 10 0 10-5 5c-5 5-5 5-5 10 0 5 0 5-7 12l-8 8-5 0c-5 0-6 0-10-5zm13-73l7-7 0-10 0-10 5-5 5-5 0-10 0-10 5-5 5-5 0-10 0-10 5-5c5-5 5-5 5-10 0-7 3-10 10-10 8 0 10-2 10-15 0-9 0-10-2-13l-3-2-55 0-55 0-5-5c-4-5-5-5-10-5-10 0-10 1-10 25l0 20 10 10 10 10 0 5 0 5 10 10 10 10 0 5c0 5 0 5 5 10l5 5 0 10 0 10 5 5c5 5 5 5 5 10 0 7 3 10 10 10l5 0 8-8z"/>
		<path d="M2107 5863l-7-8 0-20 0-20 5-6c9-10 10-10 16-3 4 4 5 4 9 4 8 0 10 2 10 15l0 10 5 5 5 5 0 11c-1 15 0 14-20 14l-15 0-8-7z"/>
		<path d="M3912 5828c-2-2-2-4-2-8 0-5 0-5-5-10l-5-5 0-45 0-45 2-3c2-2 4-2 8-2 5 0 5 0 10-5 5-5 5-5 10-5 5 0 6 0 10-5 4-5 5-5 10-5 6 0 6 0 10 5 4 5 4 5 10 5 5 0 6 0 10-5l5-5 35 0 35 0 5 5c4 5 5 5 10 5 5 0 6 0 10-5l5-5 25 0 25 0 5 5 5 5 10 0 10 0 5-5 5-5 20 0 20 0 10 10 10 10 5 0c12 0 15-13 5-19-5-4-5-8 0-12 4-2 5-4 5-10 0-4 1-5 5-9 5-5 5-5 5-10 0-4 0-6 2-8 2-2 4-2 8-2 5 0 5 0 10-5l5-5 20 0 20 0 5 5 5 5 10 0c13 0 15 2 15 10 0 5 0 5 5 10l5 5 0 10 0 10 5 5c5 5 6 5 6 10 0 5-1 5-6 10-5 4-5 5-5 10 0 8-12 20-20 20l-5 0-10 10-10 10-15 0-15 0-15-15-15-15-5 0c-10 0-10-1-10 40l0 35-7 8-8 7-30 0-30 0-5-5-5-5-10 0-10 0-5 5c-5 5-5 5-10 5-5 0-5 0-10 5l-5 5-45 0-45 0-5-5c-4-5-5-5-10-5-5 0-6 0-10 5l-5 5-40 0-40 0-3-2z"/>
		<path d="M3818 5813l-8-8 0-10 0-10 7-8c8-7 8-7 13-7l5 0 10-10 10-10 10 0c14 0 15 1 15 15l0 10-15 15-15 15 0 5c0 8-2 10-15 10l-10 0-7-7z"/>
		<path d="M5742 5808l-2-3 0-75 0-75 12-12 13-13 5 0c5 0 5 0 13 8l7 7 0 20 0 20-5 5-5 5 0 55 0 55-2 3c-3 2-3 2-18 2-15 0-15 0-18-2z"/>
		<path d="M6902 5798c-2-2-2-4-2-8 0-5 0-5-5-10l-5-5 0-70 0-70-5-5-5-5 0-10 0-10 5-5 5-5 0-15 0-15 5-5c5-5 5-5 5-10l0-5 22-23 23-22 10 0 10 0 5-5 5-5 10 0 10 0 5-5 5-5 15 0 15 0 5 5c5 5 5 5 10 5 5 0 5 0 10 5 5 5 5 5 10 5l5 0 10 10 10 10 5 0 5 0 23 22 22 23 0 10 0 10 5 5 5 5 0 15 0 15 5 5 5 5 0 75 0 75-2 3c-2 2-4 2-8 2-5 0-5 0-10 5l-5 5-10 0c-9 0-10 0-13-2l-2-3 0-65 0-65-5-5-5-5 0-30 0-30-12-13-13-12-5 0c-5 0-5 0-10-5-5-5-5-5-10-5-5 0-5 0-10-5-5-5-5-5-10-5-7 0-10-3-10-10 0-9-2-10-20-10l-15 0-5 5c-5 5-5 5-10 5-8 0-20 12-20 20 0 7-3 10-10 10-4 0-6 0-8 2l-2 3 0 110 0 110-2 3c-3 2-3 2-18 2-15 0-15 0-18-2z"/>
		<path d="M7597 5782c-7-7-7-7-7-12 0-5 0-6-5-10-5-5-5-5-5-10 0-5 0-5 5-10l5-5 0-10c0-15 0-15 20-15 15 0 15 0 18 2l2 3 0 30 0 30-7 7-8 8-5 0c-5 0-6 0-13-8z"/>
		<path d="M7977 5782l-7-7 0-30 0-30 2-3c3-2 4-2 13-2l10 0 8 7 7 8 0 25 0 25-7 7-8 8-5 0c-5 0-6 0-13-8z"/>
		<path d="M2277 5772l-7-7 0-15 0-15 10-10 10-10 0-10c0-13 2-15 10-15 5 0 6 0 10-5 7-8 13-8 23 3l7 7 0 10 0 10-10 10-10 10 0 5c0 5 0 5-5 10-5 5-5 5-5 10 0 5 0 5-7 12l-8 8-5 0c-5 0-6 0-13-8z"/>
		<path d="M2067 5763c-7-8-7-8-7-13 0-5 0-5-5-10-5-5-5-5-5-10 0-5 0-5-5-10-9-8-8-12 2-22l8-8 10 0c13 0 15 2 15 10 0 5 0 5 5 10 5 5 5 5 5 10 0 5 0 5 5 10l5 5 0 15c0 20 0 20-15 20l-10 0-8-7z"/>
		<path d="M1982 5658l-2-3 0-40 0-40 7-8c8-7 8-7 13-7 5 0 5 0 10-5l5-5 15 0 15 0 5-5 5-5 110 0 110 0 4-4c2-3 5-5 6-5 1 0 4 2 6 5l4 4 37 0c47 0 41-1 57 14 7 7 15 14 17 16 4 3 4 7 0 10-6 4-6 5-6 15l0 10 5 5 5 5 0 15c0 18-1 20-10 20-5 0-5 0-10 5l-5 5-200 0-200 0-3-2z"/>
		<path d="M7587 5653l-7-8 0-40 0-40 12-13 13-12 10 0c9 0 10 0 13 2l2 3 0 45 0 45-5 5c-5 5-5 5-5 10 0 8-2 10-15 10l-10 0-8-7z"/>
		<path d="M7977 5653l-7-8 0-15c0-16 0-16 6-20 2-2 3-3 3-5 0-2-1-3-3-5-6-4-6-5-6-15l0-10 7-8 8-7 15 0c21 0 20-1 20 25 0 21 0 21 6 25 4 3 4 7 0 10-2 2-6 6-10 9l-6 6 0 10c0 14-1 15-15 15l-10 0-8-7z"/>
		<path d="M2377 5529c-7-1-7-1-7-34l0-30 5-5c5-5 5-5 5-10 0-5 0-5 5-10 5-5 5-5 5-10l0-5 12-13 13-12 10 0 10 0 8 8c10 10 11 14 2 22-5 5-5 5-5 10 0 5 0 5-5 10l-5 5 0 10 0 10-5 5c-5 5-5 5-5 10 0 5 0 5-5 10-5 5-5 5-5 10 0 5 0 5-7 13l-8 7-8 0c-4 0-9 0-10-1z"/>
		<path d="M7982 5528c-2-2-2-4-2-8 0-4 0-6-2-8l-3-2-100 0-100 0-5-5-5-5-65 0-65 0-5 5-5 5-15 0-15 0-8-7-7-8 0-45 0-45 7-8 8-7 10 0 10 0 5-5 5-5 35 0 35 0 4 5c2 2 5 4 6 4 1 0 4-2 6-4l4-5 35 0 35 0 4 5c2 2 5 4 6 4 1 0 4-2 6-4l4-5 20 0 20 0 5 5 5 5 50 0 50 0 5-5c4-5 5-5 10-5 5 0 6 0 10 5l5 5 15 0 15 0 13 12 12 13 0 35 0 35-10 10-10 10 0 5c0 5 0 5-7 13l-8 7-10 0c-9 0-10 0-13-2z"/>
		<path d="M1972 5517c-1-1-2-4-2-7 0-5 0-5-5-10-5-5-5-5-5-10 0-5 0-5-5-10l-5-5 0-25 0-25 2-3c8-7 28-2 28 8 0 5 0 5 5 10 5 5 5 5 5 10 0 5 0 5 5 10l5 5 0 10c0 10 0 11 6 15 4 3 4 7-1 11-2 1-7 6-12 11l-8 8-5 0c-5 0-6 0-8-3z"/>
		<path d="M5890 5425l-5-5-15 0-15 0-8-8c-5-5-10-10-12-11-5-4-5-8-1-11 6-4 6-5 6-15 0-10 0-11 6-15 2-2 3-3 3-5 0-2-1-3-3-5-6-4-6-4-6-20 0-21-1-20 20-20l15 0 4-4c2-3 5-5 6-5 1 0 4 2 6 5l4 4 85 0 85 0 5-5 5-5 30 0 30 0 5 5 5 5 30 0 30 0 3 2 2 3 0 50 0 50-2 3-3 2-145 0-145 0-5 5c-4 5-5 5-10 5-5 0-6 0-10-5z"/>
		<path d="M3852 5378l-22-23 0-5c0-5 0-5-5-10l-5-5 0-10 0-10 5-5c5-5 5-5 5-10l0-5 12-13 13-12 5 0c5 0 5 0 10-5l5-5 25 0 25 0 5 5c5 5 5 5 10 5 7 0 10 3 10 10 0 5 0 5 5 10 5 5 5 5 5 10 0 5 0 5 5 10l5 5 0 15 0 15-10 10-10 10 0 10c0 14-1 15-15 15l-10 0-5 5-5 5-20 0-20 0-23-22z"/>
		<path d="M4245 5390l-10-10-5 0c-5 0-5 0-13-7l-7-8 0-10 0-10-5-5-5-5 0-15 0-15 17-18 18-17 5 0c5 0 5 0 10-5l5-5 20 0 20 0 18 17c16 17 17 18 17 22 0 6 1 8 5 10 5 4 6 8 1 11-6 4-6 5-6 15l0 10-5 5c-5 5-5 5-5 10 0 8-12 20-20 20l-5 0-10 10-10 10-10 0-10 0-10-10z"/>
		<path d="M3067 5292c-10-10-11-14-2-22l5-5 0-80 0-80-8-8-7-7-5 0c-10 2-12-5-5-11 3-2 9-8 15-14l10-10 0-5c0-5 0-5-5-10l-5-5 0-10 0-10 5-5c5-5 5-5 5-10 0-5 0-5 7-13l8-7 10 0 10 0 8 7 7 8 0 50c0 54 0 51-6 55-4 3-4 7 1 11 2 1 5 4 6 6l4 3 65 0 65 0 13-12 12-13 0-20 0-20-5-5c-5-5-5-5-5-10 0-5 0-5 5-10l5-5 0-20c0-26 0-25 15-25l10 0 8 7c7 8 7 8 7 13 0 5 0 6 5 10 8 7 8 13 0 20-8 7-8 14 0 19 5 4 6 8 1 11-6 4-6 4-6 20l0 15 5 5 5 5 0 45 0 45 5 5 5 5 0 30 0 30-10 10c-6 6-13 14-17 17-8 9-9 9-18-1l-5-6 0-35 0-35-5-5-5-5 0-15 0-15-7-8-8-7-60 0-60 0-5 5c-5 5-5 5-10 5-4 0-6 0-8 2l-2 3 0 40 0 40-5 5-5 5 0 15c0 21 1 20-20 20l-15 0-8-8z"/>
		<path d="M5100 5285l-5-5-10 0-10 0-5-5c-5-5-5-5-10-5-5 0-5 0-10-5l-5-5-10 0c-13 0-15-2-15-10l0-5-15-15-15-15 0-5c0-5 0-5-5-10-5-5-5-5-5-10l0-5-10-10-10-10 0-20 0-20-5-5-5-5 0-30 0-30 5-5 5-5 0-15 0-15 22-23 23-22 5 0 5 0 10-10 10-10 5 0c5 0 5 0 10-5 5-5 5-5 10-5 5 0 5 0 10-5l5-5 60 0 60 0 3 2c2 2 2 4 2 8l0 5 30 30 30 30 0 5 0 5 10 10 10 10 0 40 0 40-5 5-5 5 0 20 0 20-5 5c-5 5-5 5-5 10l0 5-10 10-10 10 0 5 0 5-12 13-13 12-5 0-5 0-10 10-10 10-5 0-5 0-10 10-10 10-15 0-15 0-5 5c-4 5-5 5-10 5-5 0-6 0-10-5zm40-50c5-5 5-5 10-5l5 0 18-17 17-18 0-10 0-10 10-10 10-10 0-20 0-20 5-5 5-5 0-20 0-20-5-5-5-5 0-10 0-10-10-10-10-10 0-5c0-7-3-10-10-10l-5 0-10-10-10-10-40 0-40 0-10 10-10 10-5 0c-8 0-20 12-20 20 0 5 0 5-5 10-5 5-5 5-5 10 0 5 0 5-5 10l-5 5 0 35 0 35 5 5 5 5 0 10 0 10 5 5c5 5 5 5 5 10l0 5 20 20 20 20 0 5c0 7 3 10 10 10 5 0 5 0 10 5l5 5 20 0 20 0 5-5z"/>
		<path d="M5777 5273l-7-8 0-35 0-35-5-5-5-5 0-20 0-20 5-5 5-5 0-15c0-16 0-16-6-20-2-2-3-3-3-5 0-2 1-3 3-5 6-4 6-3 6-35l0-30-5-5-5-5 0-30 0-30 10-10 10-10 0-5c0-9 2-10 20-10l15 0 5-5c5-5 5-5 10-5 2 1 7 1 10 1 5 0 6 0 10 5 4 4 5 4 10 4 7 0 10 3 10 10l0 5 15 15 16 15 0 5c0 5-1 5-11 15l-10 10 0 20 0 20 5 5 5 5 0 20 0 20 5 5 5 5 0 30 0 30-5 5-5 5 0 20 0 20 5 5 5 5 0 20 0 20-12 13-13 12-45 0-45 0-8-7z"/>
		<path d="M6167 5273l-7-8 0-175 0-175 8-8 7-7 5 0c11 2 12-5 2-14-7-6-7-6-12-6-8 0-10-2-10-15 0-9 0-10-2-13l-3-2-35 0-35 0-8-8c-7-7-7-7-7-12 0-5 0-5 7-12l8-8 10 0 10 0 5 5 5 5 20 0 20 0 10 10 10 10 5 0 5 0 13 13c8 8 15 15 17 16 5 4 5 6 0 11-9 8-5 11 15 10l15 0 7 7 8 8 0 30 0 30 5 5 5 5 0 20 0 20 5 5 5 5 0 15 0 15-5 5c-5 5-5 5-5 10 0 5 0 5 5 10l5 5 0 10 0 10-5 5-5 5 0 10c0 10 0 11 6 15 2 2 3 3 3 5 0 2-1 3-3 5-6 4-6 5-6 15l0 10 5 5 5 5 0 40 0 40-7 8-8 7-45 0-45 0-8-7z"/>
		<path d="M3877 5233l-7-8 0-25 0-25 7-8 8-7 10 0c9 0 10 0 13 2l2 3 0 35 0 35-2 3c-3 2-4 2-13 2l-10 0-8-7z"/>
		<path d="M4262 5238l-2-3 0-35 0-35 7-7 8-8 5 0c9 0 10 2 10 20l0 15 5 5 5 5 0 20c0 26 1 25-20 25-15 0-15 0-18-2z"/>
		<path d="M2260 5125c-4-5-5-5-10-5-5 0-5 0-10-5-5-5-5-5-10-5l-5 0-15-15-15-15-5 0c-5 0-6 0-10 5l-5 5-20 0c-24 0-24 0-25-10-1-12-12-14-20-5-4 5-5 5-10 5-5 0-5 0-10 5l-5 5-35 0-35 0-8-7-7-8 0-55 0-55-5-5-5-5 0-35c0-37 0-36 6-40 2-2 3-3 3-5 0-2-1-3-3-5-6-4-6-5-6-15l0-10 5-5c8-7 8-13 0-20l-5-5 0-20 0-20 5-5c8-7 8-13 0-20l-5-5 0-110 0-110 5-5c5-4 5-5 5-10 0-4 0-6 2-8l3-2 35 0 35 0 5 5c4 5 5 5 10 5 5 0 6 0 10-5l5-5 15 0 15 0 10-10 10-10 30 0 30 0 5-5c5-5 5-5 10-5 5 0 5 0 10-5l5-5 10 0 10 0 5 5 5 5 10 0 10 0 5 5c5 5 5 5 10 5 7 0 10 3 10 10 0 5 0 5 5 10 5 5 5 5 5 10 0 5 0 5 7 13l8 7 10 0 10 0 8 7c7 8 7 8 7 13l0 5 10 10c14 14 14 16 3 27-8 8-8 8-13 8l-5 0-20-20-20-20-5 0c-7 0-10 3-10 10 0 7-3 10-10 10l-5 0-10 10-10 10-15 0-15 0-5-5-5-5-10 0c-13 0-15-2-15-10 0-5 0-5-5-10-5-5-5-5-5-10 0-5 0-5-5-10-5-5-5-5-5-10 0-5 0-5-7-13l-8-7-10 0-10 0-5 5-5 5-20 0c-18 0-20 0-22 2l-2 2-1 135c0 108 0 135 1 137 2 3 6 3 11-2l3-4 35 0 35 0 3-2c2-2 2-4 2-8l0-5 12-13 13-12 10 0 10 0 5-5 5-5 10 0 10 0 5 5c5 5 5 5 10 5l5 0 10 10 10 10 5 0c5 0 6 0 10-5 4-5 5-5 10-5 8 0 20-12 20-20 0-5 0-5 7-13l8-7 15 0c21 0 20-1 20 20l0 15-16 16c-9 8-17 17-19 18-5 4-5 7 0 11 5 4 5 6-2 13-9 8-8 9-22-7l-5-6-6 0c-9 0-10 2-10 20l0 15-22 22-23 23-5 0c-5 0-6 0-10-5l-5-5-15 0-15 0-8-7c-7-8-7-8-7-13l0-5-12-13-13-12-10 0-10 0-5 5-5 5-10 0-10 0-5-5c-4-5-5-5-10-5-4 0-5 0-8-4-3-3-5-4-7-4-6 0-6 0-5 54l1 50 4 4 5 5 0 10c0 10 0 11-6 15-2 2-3 3-3 5 0 2 1 3 3 5 6 4 6 3 6 40l0 35 7 7c8 8 9 8 14 3l4-5 30 0 30 0 8-7c7-8 7-8 7-13 0-5 0-5 7-13l8-7 10 0 10 0 5-5 5-5 15 0c20 0 20 0 20 15 0 13 1 15 10 15l5 0 8-8c7-7 7-7 7-12l0-5 10-10 10-10 0-5c0-8 2-10 15-10l10 0 8 7 7 8 0 15 0 15-22 23-23 22-5 0c-8 0-10 2-10 15l0 10-5 5c-5 5-5 5-5 10 0 5 0 5-7 13l-8 7-10 0-10 0-5 5c-4 5-5 5-10 5-5 0-6 0-10-5z"/>
		<path d="M3932 5128c-8-9-2-38 8-38 5 0 5 0 10-5l5-5 10 0 10 0 4 5c2 2 5 4 6 4 1 0 4-2 6-4l4-5 10 0 10 0 8 7 7 8 0 10c0 13-2 15-10 15-5 0-5 0-10 5l-5 5-35 0-35 0-3-2z"/>
		<path d="M4072 5128c-2-3-2-4-2-13l0-10 7-8 8-7 25 0 25 0 5-5 5-5 10 0 10 0 5 5c5 5 5 5 10 5 12 0 15 11 5 20-5 4-5 5-5 10 0 4 0 6-2 8l-3 2-50 0-50 0-3-2z"/>
		<path d="M3872 5118l-2-3 0-35 0-35 2-3c3-2 3-2 18-2 15 0 15 0 18 2l2 3 0 30 0 30-7 8-8 7-10 0c-9 0-10 0-13-2z"/>
		<path d="M4212 5118c-2-3-2-4-2-13l0-10 7-8 8-7 15 0c21 0 20 1 20-25 0-26-1-25 20-25 21 0 20-1 20 25l0 20-5 5-5 5 0 10 0 10-7 8-8 7-30 0-30 0-3-2z"/>
		<path d="M8060 5075c-5-5-5-5-10-5l-5 0-13-12-12-13 0-5c0-5 0-5-5-10l-5-5 0-20 0-20 18-18 17-17 25 0 25 0 23 22 22 23 0 15 0 15-10 10-10 10 0 5c0 8-12 20-20 20-5 0-5 0-10 5l-5 5-10 0-10 0-5-5z"/>
		<path d="M7619 5075c-4-5-5-5-9-5l-5 0-18-17-17-18 0-5c0-5 0-5-5-10l-5-5 0-10 0-10 5-5c5-5 5-5 5-10 0-5 0-5 5-10 5-5 5-5 5-10 0-7 3-10 10-10l5 0 10-10 10-10 10 0c16 0 22-11 10-19-5-4-6-8 0-12 2-1 8-7 14-13l11-11 0-5c0-8 2-10 15-10l10 0 4-4c5-6 7-6 16 3 3 4 8 9 10 10 5 4 5 8 0 12-2 1-14 13-27 26l-23 23-5 0c-7 0-10 3-10 10 0 7 3 10 10 10 5 0 5 0 13 7l7 8 0 10 0 10 5 5 5 5 0 10 0 10-5 5-5 5 0 10c0 13-2 15-10 15l-5 0-10 10c-10 10-10 10-15 10-4 0-5 0-9 5-2 2-5 4-6 4-1 0-4-2-6-4z"/>
		<path d="M4272 5008c-7-6-12-13-12-18 0-5 0-5-5-10l-5-5 0-15c0-18 1-20 10-20 4 0 5 0 9-4 7-7 21 2 21 14 0 5 0 5 5 10 5 5 6 5 6 10 0 5-1 5-6 10-5 4-5 5-5 10 0 6-10 19-15 19-1 0-2-1-3-1z"/>
		<path d="M3867 4993l-7-8 0-10 0-10 5-5c5-5 5-5 5-10 0-7 3-10 10-10 4 0 5 0 9-4 5-6 7-5 15 2l6 7 0 25 0 25-2 3c-3 2-3 2-18 2l-15 0-8-7z"/>
		<path d="M2302 4988c-2-3-2-4 0-6 3-3 8-1 8 3 0 5-6 7-8 3z"/>
		<path d="M8007 4942c-4-3-13-13-22-22l-15-15 0-15 0-15 8-8 7-7 10 0 10 0 8 7 7 8 0 10 0 10 5 5c5 5 5 5 5 10 0 5 0 6 5 10 10 9 7 20-5 20-4 0-5 0-9 5-5 6-7 5-14-3z"/>
		<path d="M1072 4927l-12-12 0-150c0-118 0-150-1-151-1-1-3-3-5-4-2-2-3-3-3-5 0-2 1-3 3-5 6-4 6-5 6-15 0-13 2-15 10-15 5 0 6 0 10-5 4-5 5-5 10-5 6 0 6 0 10 5 4 5 4 5 10 5 5 0 6 0 10-5l5-5 15 0 15 0 5 5 5 5 30 0 30 0 10 10 10 10 25 0 25 0 5 5c5 5 5 5 10 5l5 0 10 10 10 10 5 0c7 0 10 3 10 10l0 5 10 10 10 10 0 15 0 15-5 5-5 5 0 10 0 10-30 30-30 30 0 5c0 5 0 5 10 15l10 10 0 5c0 5 0 5 5 10l5 5 0 15 0 15-5 5c-5 5-5 5-5 10l0 5-10 10-10 10 0 5c0 8-12 20-20 20-5 0-5 0-10 5-5 5-5 5-10 5-5 0-5 0-10 5l-5 5-40 0-40 0-5-5-5-5-25 0-25 0-5 5c-4 5-5 5-10 5l-5 0-13-13zm186-49l12-13 0-5c0-5 0-6 5-10 10-10 0-30-15-30-5 0-5 0-10-5l-5-5-65 0-65 0-3 2-2 3 0 35 0 35 2 3 3 2 65 0 65 0 13-12zm-118-133l5-5 60 0 60 0 5-5c5-5 5-5 10-5 8 0 20-12 20-20 0-5 0-5 5-10l5-5 0-10 0-10-5-5c-5-5-5-5-5-10 0-5 0-5-7-13l-8-7-15 0-15 0-5-5c-5-5-5-5-10-5-5 0-5 0-10-5l-5-5-55 0-55 0-8 8c-10 10-11 14-2 22l5 5 0 45 0 45 2 3c3 2 4 2 13 2l10 0 5-5z"/>
		<path d="M2352 4938c-2-2-2-4-2-8l0-5-10-10-10-10 0-20c0-26-1-25 20-25l15 0 8 7 7 8 0 10 0 10 10 10 10 10 0 10c0 15 1 15-25 15-20 0-20 0-23-2z"/>
		<path d="M3862 4908l-12-13 0-5c0-5 0-5-5-10-5-5-5-5-5-10 0-5 0-5-5-10l-5-5 0-20 0-20 17-18 18-17 25 0 25 0 23 22 22 23 0 15 0 15-5 5-5 5 0 15c0 20 0 20-15 20l-10 0-10 10-9 9-16 1-15 0-13-12z"/>
		<path d="M4245 4910l-10-10-5 0c-8 0-20-12-20-20 0-5 0-5-5-10-4-4-5-5-5-9 0-6-1-8-5-10-3-2-4-4-4-6 0-2 1-4 4-6 4-2 5-4 5-10 0-4 1-5 5-9 5-5 5-5 5-10l0-5 12-13 13-12 10 0 10 0 5-5 5-5 15 0 15 0 18 17 17 18 0 15 0 15 5 5 5 5 0 20 0 20-7 8c-8 7-8 7-13 7-5 0-5 0-10 5-5 5-5 5-10 5-5 0-6 0-10 5l-4 4-15 1-16 0-10-10z"/>
		<path d="M5826 4891c-5-5-10-9-12-11-4-3-4-7 1-11 2-1 7-6 12-11 8-8 8-8 13-8 5 0 5 0 10-5l5-5 25 0 25 0 3 2c2 3 2 4 2 13 0 14-1 15-15 15l-10 0-10 10-10 10-5 0c-5 0-6 0-10 5-4 4-5 4-10 4l-5 0-9-8z"/>
		<path d="M5947 4842c-7-7-7-7-7-12 0-5 0-5 7-12l8-8 20 0 20 0 5-5 5-5 15 0c21 0 20-1 20 20l0 15-7 8-8 7-35 0-35 0-8-8z"/>
		<path d="M7710 4845c-4-4-5-5-10-6-9-1-10-2-10-14l0-10 10-10 10-10 0-5 0-5 25-25 25-25 0-5 0-5 10-10 10-10 0-5c0-5 0-5-5-10l-5-5 0-30 0-30 7-8c8-7 8-7 13-7 5 0 5 0 15-9l9-10 16 0 15 0 5 5c4 4 5 4 10 4l5 0 23 22 22 23 0 10 0 10-5 5c-5 5-5 5-5 10l0 5 10 10 10 10 0 5c0 5 5 11 16 20 4 3 4 7-1 11-2 1-5 4-7 6-3 3-3 3-13 3l-10 0-13-13c-7-7-15-16-19-19-8-9-8-9-16 0-4 3-8 8-9 9l-3 3-20 0-20 0-8 7-7 8 0 10c0 13-2 15-10 15-5 0-5 0-13 7l-7 8 0 10 0 10-15 15-15 15 0 5c0 11-11 14-20 5z"/>
		<path d="M7957 4842c-7-7-7-7-7-12l0-5-15-15-15-15 0-10 0-10 8-8c7-7 7-7 12-7l5 0 13 13 12 12 0 5c0 5 0 5 5 10 5 5 5 5 5 10 0 5 0 5 5 10 9 8 8 12-2 22-12 11-15 11-26 0z"/>
		<path d="M7172 4848c-7-6-12-13-12-18l0-5-10-10-10-10 0-10 0-10-5-5c-5-5-5-5-5-10 0-5 0-5-5-10-5-5-5-5-5-10 0-5 0-5-5-10-5-5-5-5-5-10 0-5 0-5-5-10-5-5-5-5-5-10 0-5 0-5-5-10-5-5-5-5-5-10 0-5 0-5-5-10-5-5-5-5-5-10 0-5 0-5-5-10l-5-5 0-10 0-10-10-10c-10-10-10-10-10-15 0-7-3-10-10-10l-5 0-13 13-12 12 0 5c0 5 0 5-5 10-5 5-5 5-5 10 0 5 0 5-5 10-5 5-5 5-5 10 0 5 0 5-5 10-5 5-5 5-5 10 0 5 0 5-5 10-5 5-5 5-5 10l0 5-15 15-15 15 0 10 0 10-10 10-10 10 0 5c0 5 0 5-5 10-5 5-5 5-5 10 0 5 0 5-7 13l-8 7-15 0c-22 0-28-8-15-20 5-5 5-5 5-10 0-5 0-5 5-10 5-5 5-5 5-10 0-5 0-5 5-10l5-5 0-10 0-10 10-10 10-10 0-5c0-5 0-5 5-10 5-5 5-5 5-10 0-5 0-5 5-10 5-5 5-5 5-10l0-5 10-10 10-10 0-15 0-15 10-10 10-10 0-5c0-5 0-5 5-10 5-5 5-5 5-10 0-5 0-5 5-10 5-5 5-5 5-10l0-5 10-10 10-10 0-5c0-5 0-5 7-13l8-7 15 0 15 0 5 5c5 5 5 5 10 5 9 0 10 2 10 20l0 15 7 8c8 7 8 7 13 7 4 0 6 0 8 2l2 3 0 25 0 25 6 6c4 3 8 7 10 9 4 3 4 7 0 10-6 4-6 3-6 35l0 30 10 10 10 10 0 5 0 5 30 30 30 30 0 10 0 10-5 5c-3 3-8 9-12 12-6 7-8 8-11 6z"/>
		<path d="M2438 4730c-3 0-5-1-8-5-4-5-5-5-10-5l-5 0-12-12-13-13 0-25 0-25 7-8 8-7 15 0c15 0 15 0 18 2l2 3 0 40 0 40 5 4c6 5 5 13-2 12-1 0-3 0-5-1z"/>
		<path d="M5720 4605c-5-5-5-5-10-5-5 0-5 0-13-7-7-8-7-8-7-13 0-5 0-5-5-10l-5-5 0-20 0-20 12-13 13-12 10 0 10 0 10-10 10-10 20 0 20 0 13 12 12 13 0 5c0 5 0 6 4 10 3 2 5 5 5 7 2 5 0 9-5 13l-4 5 0 15 0 15-5 5c-5 5-5 5-5 10 0 9-2 10-20 10l-15 0-5 5-5 5-15 0-15 0-5-5z"/>
		<path d="M5900 4605l-5-5-30 0-30 0-3-2-2-3 0-45 0-45 3-3 2-2 85 0 85 0 5-5 5-5 10 0 10 0 4-4c2-3 5-5 6-5 1 0 4 2 6 5l4 4 10 0 10 0 5 5 5 5 40 0 40 0 3 3 2 2-1 18c0 10 0 26 0 36l1 17 5 4c7 6 8 13 3 18l-3 2-125 0-125 0-5 5c-4 5-5 5-10 5-5 0-6 0-10-5z"/>
		<path d="M4035 4590l-10-10-5 0c-5 0-5 0-10-5-5-5-5-5-10-5-5 0-5 0-13-7l-7-8 0-35 0-35 2-3c2-2 4-2 8-2l5 0 10-10 10-10 20 0 20 0 5-5c4-5 5-5 10-5 5 0 6 0 10 5 4 5 5 5 10 5 7 0 10 3 10 10l0 5 10 10 10 10 0 20c0 24 0 25-10 25-7 0-10 3-10 10l0 5-10 10-10 10 0 5c0 5 0 5-7 13l-8 7-10 0-10 0-10-10z"/>
		<path d="M7910 4585l-5-5-28 0c-16 0-74 0-130 0l-102 0-7-7-8-8 0-40 0-40 7-8 8-7 195 0 195 0 5 5 5 5 10 0c13 0 15 2 15 10 0 5 0 5 5 10l5 5 0 30 0 30-7 8c-8 7-8 7-13 7-5 0-5 0-10 5l-5 5-10 0-10 0-5-5-5-5-40 0-40 0-5 5c-4 5-5 5-10 5-5 0-6 0-10-5z"/>
		<path d="M6183 4558c-2-2-2-2-2-18 0-6 0-12 0-13 0-2 3-6 10-12 9-10 9-10 9-15 0-5 0-5 7-13l8-7 20 0c24 0 26 1 26 10l0 5-11 10-10 10 0 10c0 13-2 15-10 15-4 0-6 0-8 2-2 2-2 4-2 8 0 10-29 16-37 8z"/>
		<path d="M1922 4528c-2-3-2-4-2-13 0-9 0-10 2-13l3-2 25 0c35 0 40 5 23 22l-8 8-20 0c-20 0-20 0-23-2z"/>
		<path d="M5030 4515c-5-5-5-5-10-5-5 0-5 0-13-7l-7-8 0-155 0-155 7-8 8-7 15 0c18 0 20 1 20 10 0 5 0 5 5 10l5 5 0 25 0 25-5 5-5 5 0 15c0 18 1 20 10 20l5 0 10 10 10 10 40 0 40 0 5 5 5 5 10 0 10 0 5 5c5 5 5 5 10 5 5 0 5 0 10 5 5 5 5 5 10 5l5 0 13 12 12 13 0 35 0 35-5 5c-5 5-5 5-5 10l0 5-17 18-18 17-5 0c-5 0-5 0-10 5-5 5-5 5-10 5-5 0-5 0-10 5l-5 5-20 0-20 0-5 5-5 5-45 0-45 0-5-5zm70-40l5-5 15 0 15 0 5-5 5-5 15 0 15 0 8-7 7-8 0-10 0-10-5-5c-5-5-5-5-5-10l0-5 10-10 10-10 0-5c0-4 0-6-2-8l-3-2-30 0-30 0-4-4c-2-3-5-5-6-5-1 0-4 2-6 5l-4 4-30 0-30 0-3 2c-2 3-2 3-2 18l0 15 5 5 5 5 0 15 0 15-5 5c-10 9-7 20 5 20 5 0 5 0 10 5l5 5 10 0 10 0 5-5z"/>
		<path d="M3177 4463l-7-8 0-10 0-10 5-5 5-5 0-70 0-70-5-5-5-5 0-35 0-35-5-5c-5-5-5-5-5-10l0-5 12-12 13-13 10 0 10 0 13 12 12 13 0 50 0 50 2 3c2 1 4 2 8 2 7 0 11 3 11 10l0 5-11 10-10 10 0 50 0 50-5 5-5 5 0 10 0 10-7 8-8 7-10 0-10 0-8-7z"/>
		<path d="M5822 4468c-2-3-2-3-2-23l0-20 5-5 5-5 0-10 0-10 7-7c8-8 8-8 13-8 5 0 5 0 13 8l7 7 0 30 0 30-7 8-8 7-15 0c-15 0-15 0-18-2z"/>
		<path d="M6222 4448c-2-3-2-3-2-18l0-15 5-5 5-5 0-10c0-14 1-15 15-15 9 0 10 0 13 2l2 3 0 30 0 30-2 3c-3 2-3 2-18 2-15 0-15 0-18-2z"/>
		<path d="M4039 4425c-4-5-5-5-9-5-7 0-10-3-10-10 0-5 0-5-5-10-4-4-5-5-5-9 0-6-1-8-5-10-3-2-4-4-4-6 0-2 1-4 4-6 4-2 5-4 5-10 0-4 1-5 5-9 5-5 5-5 5-10l0-5 12-12 13-13 5 0c7 0 10 3 10 10 0 5 0 6 5 10 5 5 6 5 6 10 0 5-1 5-6 10l-5 5 0 30 0 30-5 6c-9 10-10 10-16 4z"/>
		<path d="M5860 4355l-5-5-10 0c-9 0-10 0-13-2l-2-3 0-35 0-35-5-5c-9-8-8-12 2-22l8-8 50 0 50 0 5-5 5-5 100 0 100 0 13 12 12 13 0 9c0 9-1 11-6 15-7 6-3 12 7 11 6 0 8-3 9-11 2-8 3-9 15-9l10 0 8 7 7 8 0 10 0 10 10 10 10 10 0 10c0 15 0 15-20 15l-15 0-8-7c-7-8-7-8-7-13 0-5 0-5-7-12l-8-8-5 0c-12 0-15 13-5 19 5 4 5 8 0 12-2 1-5 4-6 6-3 3-4 3-9 3-5 0-6 0-10 5-4 5-5 5-10 5-5 0-6 0-10-5l-5-5-100 0-100 0-5 5-5 5-20 0-20 0-5-5z"/>
		<path d="M4012 4288c-2-3-2-3-2-23l0-20 5-5 5-5 0-20c0-24 0-25 10-25 5 0 6 0 10-5 4-5 5-5 10-5l5 0 13 13 12 12 0 30 0 30-7 8-8 7-10 0-10 0-5 5-5 5-10 0c-9 0-10 0-13-2z"/>
		<path d="M5832 4198c-2-3-2-4-2-13l0-10-5-5-5-5 0-15c0-21-1-20 20-20 18 0 20 1 20 10 0 5 0 5 5 10l5 5 0 20c0 26 1 25-20 25-15 0-15 0-18-2z"/>
		<path d="M4022 4158l-2-3 0-25 0-25-7-8c-8-7-8-7-13-7l-5 0-18-17-17-18 0-10 0-10 10-10 10-10 0-10 0-10 12-13 13-12 30 0 30 0 5 5c5 5 5 5 10 5 5 0 5 0 13 7l7 8 0 35 0 35-10 10-10 10 0 5 0 5-10 10-10 10 0 20c0 26 1 25-20 25-15 0-15 0-18-2z"/>
		<path d="M2007 4122c-10-10-11-14-2-22l5-5 0-10 0-10-5-6c-9-10-10-10-16-3l-4 4-10 0-10 0-18-17-17-18 0-15 0-15 7-7c8-8 8-8 13-8l5 0 15 15 15 15 5 0c5 0 6 0 10-5 4-5 5-5 10-5 5 0 5 0 10-5l5-5 165 0 165 0 3-2c2-3 2-4 2-13l0-10 12-13 13-12 35 0 35 0 18 17 17 18 0 30 0 30-7 8c-8 7-8 7-13 7l-5 0-15 15-15 15-5 0-5 0-10-10-10-10-5 0-5 0-10-10c-9-9-10-10-15-10-10-2-12 5-4 11l4 4 0 15 0 15-5 5c-5 5-5 5-5 10 0 5 0 5-7 13l-8 7-90 0-90 0-4-4c-2-3-5-5-6-5-1 0-4 2-6 5l-4 4-65 0-65 0-8-8z"/>
		<path d="M5822 4098c-2-3-2-4-2-13 0-10 0-11-6-15-2-2-3-3-3-5 0-2 1-3 3-5 11-8 8-30-4-30l-5 0-13-12-12-13 0-45 0-45 2-3c3-2 4-2 13-2l10 0 5-5 5-5 15 0 15 0 5 5 5 5 10 0c13 0 15 2 15 10 0 7 3 10 10 10 4 0 6 0 8 2l2 3 0 35 0 35-2 3c-3 2-4 2-13 2l-10 0-8 7-7 8 0 30 0 30-7 8-8 7-10 0c-9 0-10 0-13-2z"/>
		<path d="M8262 4088c-2-2-2-4-2-8 0-5 0-5-5-10-5-5-5-5-5-10 0-5 0-5-5-10l-5-5 0-20c0-26 0-25 15-25l10 0 8 7c7 8 7 8 7 13 0 5 0 5 5 10l5 5 0 25 0 25-2 3c-3 2-4 2-13 2-9 0-10 0-13-2z"/>
		<path d="M7509 4075l-4-5-15 0-15 0-5-5c-5-5-5-5-10-5-5 0-5 0-13-7l-7-8 0-15 0-15 5-5c5-5 5-5 5-10 0-5 0-5 5-10 5-5 5-5 5-10 0-7 3-10 10-10l5 0 10-10 10-10 15 0 15 0 22 23 23 22 0 30 0 30-2 3c-2 2-4 2-8 2-5 0-5 0-10 5l-5 5-10 0-10 0-4 5c-2 2-5 4-6 4-1 0-4-2-6-4z"/>
		<path d="M7812 4048c-2-3-2-4-2-13l0-10-5-5c-5-5-5-5-5-10 0-5 0-5-5-10-5-5-5-5-5-10l0-5-10-10-10-10 0-5c0-5 0-5-5-10l-5-5 0-10 0-10-5-5-5-5 0-10 0-10-10-10-10-10 0-15 0-15-5-5c-5-5-5-5-5-10 0-5 0-5-5-10-5-5-5-5-5-10l0-5-10-10-10-10 0-15 0-15-5-5-5-5 0-10 0-10-5-5c-5-5-5-5-5-10 0-5 0-5-5-10-4-4-5-5-5-9 0-6-1-8-5-10-3-2-4-4-4-6 0-2 1-4 4-6 4-2 5-4 5-10 0-6 3-9 10-9 5 0 5 0 10-5 5-5 5-5 10-5 5 0 5 0 10-5l5-5 25 0 25 0 3 2c2 2 2 4 2 8 0 5 0 5 5 10 5 5 5 5 5 10 0 5 0 5 5 10l5 5 0 10 0 10 5 5c5 5 5 5 5 10 0 5 0 5 5 10 5 5 5 5 5 10 0 5 0 5 5 10 5 5 5 5 5 10 0 5 0 5 5 10l5 5 0 10 0 10 5 5 5 5 0 10 0 10 5 5c5 5 5 5 5 10 0 5 0 5 5 10 5 5 5 5 5 10 0 5 0 5 5 10l5 5 0 10 0 10 5 5 5 5 0 10 0 10 10 10c10 10 10 10 10 15 0 7 3 10 10 10l5 0 8-8 7-7 0-10 0-10 5-5 5-5 0-10 0-10 5-5 5-5 0-10 0-10 10-10 10-10 0-5c0-5 0-5 5-10 5-5 5-5 5-10 0-5 0-5 5-10 5-5 5-5 5-10 0-5 0-5 5-10 5-5 5-5 5-10 0-5 0-5 5-10 5-5 5-5 5-10 0-5 0-5 5-10l5-5 0-10 0-10 10-10 10-10 0-5 0-5 10-10 10-10 0-10 0-10 5-5c5-5 5-5 5-10 0-9 2-10 20-10l15 0 5 5c5 5 5 5 10 5 5 0 5 0 10 5 5 5 5 5 10 5l5 0 13 12 12 13 0 10 0 10-10 10-10 10 0 15c0 20 0 20 15 20 13 0 15 2 15 10 0 5 0 5 5 10 5 5 5 5 5 10 0 5 0 5 5 10l5 5 0 20c0 24 0 25-10 25l-5 0-18-18-17-17 0-15c0-19-1-20-10-20-9 0-10 2-10 15l0 10-10 10-10 10 0 10 0 10-10 10-10 10 0 10 0 10-10 10-10 10 0 5c0 5 0 5-5 10-5 5-5 5-5 10 0 5 0 5-5 10l-5 5 0 10 0 10-10 10-10 10 0 10 0 10-10 10-10 10 0 5 0 5-12 12-13 13-5 0c-5 0-6 0-10-5-4-5-5-5-10-5-5 0-5 0-10-5-5-5-5-5-10-5-5 0-5 0-10-5l-5-5-10 0-10 0-5 5c-5 5-5 5-10 5l-5 0-15 15-15 15-15 0c-15 0-15 0-18-2z"/>
		<path d="M1125 4000l-10-10-10 0-10 0-5-5c-5-5-5-5-10-5l-5 0-28-27-27-28 0-5c0-5 0-5-5-10-5-5-5-5-5-10 0-5 0-5-5-10l-5-5 0-15 0-15-5-5-5-5 0-30 0-30 5-5 5-5 0-10 0-10 5-5 5-5 0-10c0-13 2-15 10-15l5 0 10-10 10-10 5 0c7 0 10-3 10-10 0-8 2-10 15-10l10 0 10-10 10-10 55 0 55 0 5 5 5 5 10 0 10 0 5 5c5 5 5 5 10 5 8 0 20 12 20 20 0 5 0 5 5 10l5 5 0 10 0 10-5 6c-9 10-10 10-16 4-4-5-5-5-9-5-5 0-6 0-10-5-5-5-5-5-10-5-5 0-5 0-10-5-5-5-5-5-10-5-5 0-5 0-10-5l-5-5-40 0-40 0-20 20-20 20-5 0c-9 0-10 2-10 20l0 15-10 10-10 10 0 5c0 5 0 5 5 10l5 5 0 20 0 20 5 5c5 5 5 5 5 10 0 5 0 5 5 10 5 5 5 5 5 10l0 5 22 23 23 22 5 0c5 0 5 0 10 5l5 5 15 0 15 0 5-5 5-5 10 0 10 0 13-12 12-13 0-5c0-9 2-10 20-10l15 0 8 7 7 8 0 15 0 15-22 23-23 22-15 0-15 0-5 5-5 5-30 0-30 0-10-10z"/>
		<path d="M1910 3955c-4-5-5-5-10-5-7 0-10-3-10-10 0-5 0-5-5-10l-5-5 0-15 0-15 7-8 8-7 10 0c14 0 15 1 15 15l0 10 5 5c5 5 5 5 5 10 0 5 0 5 5 10 9 8 8 12-2 22-10 11-16 11-23 3z"/>
		<path d="M8212 3958c-2-2-2-4-2-8 0-5 0-5-5-10l-5-5 0-10 0-10-5-5c-4-4-5-5-5-9 0-6-1-8-5-10-5-4-6-8 0-12 2-1 7-6 12-11l8-8 10 0c15 0 15-1 15 25l0 20 5 5c5 5 5 5 5 10 0 5 0 5 5 10l5 5 0 10c0 15 0 15-20 15-15 0-15 0-18-2z"/>
		<path d="M7547 3952l-7-7 0-10 0-10 5-5 5-5 0-10c0-13 2-15 10-15 4 0 5 0 9-4 2-3 5-5 6-5 1 0 4 2 6 5 4 4 5 4 9 4 12 0 15 11 5 20-5 4-5 5-5 10l0 5-10 10c-6 6-13 14-17 17-7 9-8 9-16 0z"/>
		<path d="M6812 3878c-1-2-2-4-2-7 0-6-1-8-5-10-3-2-4-4-4-6 0-2 1-4 4-6 4-2 5-4 5-10 0-4 1-5 10-14l10-10 0-5c0-5 0-5 5-10 5-5 5-5 5-10l0-5 10-10 10-10 0-5c0-5 0-5 5-10 5-5 5-5 5-10 0-5 0-5 5-10 5-5 5-5 5-10 0-5 0-5 5-10l5-5 0-10 0-10 5-5c5-5 5-5 5-10 0-5 0-5 5-10 5-5 5-5 5-10 0-5 0-5 5-10l5-5 0-20 0-20 7-8 8-7 15 0 15 0 8 7c7 8 7 8 7 13 0 5 0 5 5 10 5 5 5 5 5 10 0 5 0 5 5 10l5 5 0 15 0 15 5 5c5 5 5 5 5 10 0 5 0 5 5 10 5 5 5 5 5 10 0 8 12 21 17 18 1 0 4-3 7-7l6-6 0-15 0-15 5-5c5-5 5-5 5-10 0-5 0-5 5-10l5-5 0-10 0-10 5-5 5-5 0-10c0-13 2-15 10-15l5 0 10-10 10-10 10 0 10 0 8 7 7 8 0 10 0 10 5 5 5 5 0 10 0 10 5 5 5 5 0 10 0 10 5 5 5 5 0 10 0 10 5 5c5 5 5 5 5 10 0 5 0 5 5 10 5 5 5 5 5 10 0 5 0 5 5 10 5 5 5 5 5 10 0 5 0 5 5 10l5 5 0 10 0 10 5 5 5 5 0 20c0 26 0 25-15 25l-10 0-13-12-12-13 0-10 0-10-5-5c-5-5-5-5-5-10 0-5 0-5-5-10-5-5-5-5-5-10l0-5-10-10-10-10 0-10 0-10-5-5-5-5 0-10 0-10-5-6c-12-13-17-11-15 6l0 10-5 5-5 5 0 10 0 10-5 5c-5 5-5 5-5 10 0 5 0 5-5 10l-5 5 0 10 0 10-5 5c-5 5-5 5-5 10 0 5 0 5-5 10l-5 5 0 10 0 10-7 8-8 7-15 0c-21 0-20 1-20-25l0-20-10-10-10-10 0-5c0-5 0-5-5-10l-5-5 0-10 0-10-5-5-5-5 0-10 0-10-5-5c-5-5-5-5-5-10 0-7-3-10-10-10-9 0-10 1-10 20l0 15-5 5c-5 5-5 5-5 10 0 5 0 5-5 10-5 5-5 5-5 10 0 5 0 5-5 10-5 5-5 5-5 10 0 5 0 5-5 10-5 5-5 5-5 10 0 5 0 5-5 10-5 5-5 5-5 10l0 5-10 10-10 10 0 5 0 5-17 18-18 17-10 0c-9 0-10 0-13-2z"/>
		<path d="M4060 3855c-5-5-5-5-10-5l-5 0-18-18-17-17 0-5c0-5 0-5 5-10l5-5 0-20 0-20 7-8c8-7 8-7 13-7l5 0 11-11c17-16 17-20-1-19l-10 0-7-7-8-8 0-55 0-55-5-5-5-5 0-10 0-10 5-5 5-5 0-10 0-10-5-5-5-5 0-10 0-10 5-5 5-5 0-40 0-40 2-3 3-2 45 0 45 0 18 18 18 17 0 5c0 5-1 5-11 15l-10 10 0 10 0 10 5 5 5 5 0 60 0 60-5 5-5 5 0 40 0 40-3 3-2 2-25 0c-27-1-28-1-28 5 0 4 3 6 8 6 5 0 6 0 10 5 4 4 5 4 10 4l5 0 13 12 12 13 0 10 0 10 5 5 5 5 0 20 0 20-5 5c-5 5-5 5-5 10 0 5 0 5-7 13l-8 7-30 0-30 0-5-5z"/>
		<path d="M7582 3858c-2-3-2-3-2-18l0-15 10-10 10-10 0-5c0-5 0-5 5-10 5-5 5-5 5-10l0-5 12-13 13-12 10 0 10 0 8 7 7 8 0 10 0 10-15 15-15 15 0 10 0 10-12 13-13 12-15 0c-15 0-15 0-18-2z"/>
		<path d="M1872 3848c-2-2-2-4-2-8 0-5 0-6-5-10-5-5-5-5-5-10 0-5 0-5 5-10l5-5 0-15 0-15 7-7c8-8 8-8 13-8l5 0 13 13 12 12 0 10 0 10-5 5-5 5 0 10 0 10-7 8-8 7-10 0c-9 0-10 0-13-2z"/>
		<path d="M2390 3775l-5-5-10 0-10 0-8-7-7-8 0-10 0-10-12-12-13-13-5 0c-5 0-6 0-10 5l-5 5-140 0-140 0-8-7-7-8 0-35c0-37 0-36-6-40-4-3-4-7 1-11 2-1 7-6 12-11l8-8 15 0 15 0 5 5 5 5 60 0 60 0 5-5 5-5 10 0 10 0 5 5 5 5 45 0 45 0 5-5c9-10 30 0 30 14 0 6 1 8 5 10 5 4 5 8 0 12-10 6-7 19 5 19l5 0 10-10 10-10 10 0 10 0 10 10 10 10 5 0 5 0 13 12 12 13 0 25 0 25-17 18-18 17-5 0c-5 0-6 0-10 5-4 5-5 5-10 5-5 0-6 0-10-5z"/>
		<path d="M5960 3755l-5-5-10 0-10 0-8-8c-12-11-10-22 3-22 5 0 5 0 10-5l5-5 35 0 35 0 8 8c7 7 8 7 8 12 0 5-1 5-8 12l-8 8-10 0-10 0-5 5-5 5-10 0-10 0-5-5z"/>
		<path d="M1911 3727c-1-2-4-5-6-6-6-4-5-8 0-12 4-2 5-4 5-10 0-4 1-5 17-22l18-17 10 0 10 0 5-5c12-13 20-7 20 15l0 15-12 13-13 12-5 0c-5 0-5 0-10 5-5 5-5 5-10 5-5 0-6 0-10 5-6 7-14 7-19 2z"/>
		<path d="M5842 3708l-22-23 0-10c0-14 1-15 15-15l10 0 5 5c5 5 5 5 10 5l5 0 18 17 17 18 0 10c0 15 0 15-20 15l-15 0-23-22z"/>
		<path d="M6071 3727c-1-2-4-5-6-6-5-4-5-8-1-11 11-9 16-15 16-20l0-5 12-13 13-12 5 0c15 0 25-21 15-30l-5-5 0-175 0-175 2-3c2-2 4-2 8-2 5 0 5 0 10-5l5-5 30 0 30 0 8 7 7 8 0 15 0 15 5 5 5 5 0 65 0 65 5 5c5 5 6 5 6 10 0 5-1 5-6 10l-5 5 0 30 0 30 5 5 5 5 0 35 0 35-12 13-13 12-20 0-20 0-5 5c-5 5-5 5-10 5-9 0-10 2-10 20 0 18-1 20-10 20l-5 0-20 20-20 20-10 0-10 0-4-3z"/>
		<path d="M3187 3703l-7-8 0-15c0-16 0-16 6-20 2-2 3-3 3-5 0-2-1-3-3-5-6-4-6-3-6-30l0-25-5-5c-5-5-5-5-5-10 0-5 0-5 5-10l5-5 0-50 0-50-5-5-5-5 0-15 0-15 5-5c5-5 5-5 5-10 0-5 0-5-5-10-5-4-5-5-5-10l0-5-17-18-18-17-10 0c-14 0-15 1-15 15l0 10-17 18-18 17-15 0-15 0-13-13-12-12 0-5c0-5 0-5 5-10 5-4 5-5 5-10 0-5 0-5 7-13l8-7 10 0 10 0 20-20 20-20 25 0 25 0 10 10 10 10 5 0 5 0 13 12 12 13 0 5 0 5 10 10 10 10 0 5 0 5 10 10c15 14 15 16 0 30l-10 10 0 5 0 5 10 10 11 10 0 5c0 5-1 5-6 10-5 5-5 5-5 10 0 5 0 5 5 10 10 9 7 20-5 20-4 0-6 1-8 2l-2 3 0 90 0 90-2 3c-3 2-3 2-18 2l-15 0-8-7z"/>
		<path d="M5742 3637l-12-12 0-10 0-10 5-5 5-5 0-10 0-10-5-5-5-5 0-25 0-25 5-5 5-5 0-60 0-60-5-5-5-5 0-45 0-45 12-12 13-13 5 0c6 0 6 0 10 5 5 6 6 6 44 5l31 0 3 2c5 5 4 12-3 18-8 7-8 13 0 20l5 5 0 105 0 105 5 5 5 5 0 40 0 40-12 13-13 12-5 0c-5 0-6 0-10 5l-5 5-10 0-10 0-5-5c-4-5-5-5-10-5-6 0-6 0-10 5-4 5-4 5-10 5l-5 0-13-13z"/>
		<path d="M5090 3625l-5-5-10 0-10 0-5-5c-5-5-5-5-10-5-5 0-5 0-10-5l-5-5-10 0-10 0-13-12-12-13 0-5 0-5-10-10-10-10 0-5c0-5 0-5-5-10l-5-5 0-20 0-20-5-5-5-5 0-30 0-30 5-5 5-5 0-10 0-10 10-10 10-10 0-5c0-7 3-10 10-10 5 0 5 0 10-5 5-5 5-5 10-5l5 0 10-10 10-10 5 0 5 0 10-10 10-10 40 0 40 0 5-5 5-5 10 0 10 0 5-5c5-5 5-5 10-5l5 0 10-10 10-10 45 0 45 0 4 3c1 2 4 5 6 6 3 2 4 4 4 6 0 2-1 4-4 6-2 1-5 4-6 6l-4 3-15 0-15 0-5 5c-5 5-5 5-10 5-5 0-5 0-10 5-5 5-5 5-10 5-5 0-5 0-13 8-5 5-10 10-12 11-5 4-5 8-1 11 2 2 6 6 10 9l6 6 0 15 0 15 5 5 5 5 0 35 0 35 5 5 5 5 0 15 0 15-5 5-5 5 0 15 0 15-5 5c-5 5-5 5-5 10l0 5-17 18-18 17-5 0-5 0-15 15-15 15-30 0-30 0-5-5zm30-50l5-5 10 0 10 0 13-12 12-13 0-15c0-18 1-20 10-20 12 0 15-11 5-20l-5-5 0-30 0-30-5-5c-5-5-5-5-5-10 0-11-11-14-20-5l-5 5-30 0-30 0-3-2c-7-8-2-28 8-28 5 0 5 0 13-8 4-4 9-9 12-11 10-8 5-12-16-11l-15 1-9 9-10 10-5 0-5 0-23 22-22 23 0 30 0 30 5 5 5 5 0 10 0 10 5 5c5 5 5 5 5 10l0 5 22 23 23 22 10 0 10 0 5 5c4 5 5 5 10 5 5 0 6 0 10-5z"/>
		<path d="M4067 3372l-17-17 0-5 0-5-10-10-10-10 0-5c0-7-3-10-10-10-7 0-10-3-10-10l0-5-15-15-15-15 0-10 0-10-5-5c-5-5-5-5-5-10l0-5-15-15-15-15 0-5c0-5 0-5-5-10l-5-5 0-15c0-21 1-20-20-20l-15 0-5 5c-5 5-5 5-10 5-5 0-5 0-10 5l-5 5-15 0-15 0-5 5-5 5-10 0-10 0-5 5-5 5-20 0-20 0-5 5-5 5-15 0-15 0-5 5-5 5-10 0-10 0-5-5c-5-5-5-5-10-5-4 0-6 0-8-2-2-2-2-4-2-8 0-5 0-5-5-10l-5-5 0-30 0-30-5-5-5-5 0-25 0-25 5-5 5-5 0-15c0-20 0-20 15-20 9 0 10 0 13 2l2 3 0 30 0 30 2 3c3 2 4 2 13 2l10 0 5-5 5-5 25 0 25 0 10-10 10-10 20 0 20 0 5-5 5-5 20 0 20 0 5-5 5-5 15 0c18 0 20 1 20 10 0 5 0 5 5 10l5 5 0 20 0 20 10 10 10 10 0 6c0 11 4 11 13 1 12-13 11-12 17-12 5 0 6 0 10-5 9-10 30 0 30 15l0 5 15 15 15 15 0 5c0 5 0 5 5 10 5 5 5 5 5 10l0 5 10 10 10 10 0 5c0 5 0 5 5 10 5 5 5 5 5 10l0 5 15 15 15 15 0 5 0 5 10 10 10 10 0 5 0 5 10 10 10 10 0 10 0 10-22 23-23 22-5 0c-5 0-6 0-10 5-4 4-5 4-10 4l-6 0-17-17z"/>
		<path d="M5977 3363c-7-8-7-8-7-13 0-7-3-10-10-10-4 0-6 0-8-2l-2-3 0-30 0-30 17-18 18-17 20 0 20 0 5 5c5 5 5 5 10 5 5 0 5 0 13 7 7 8 7 8 7 13 0 5 0 5 5 10l5 5 0 20 0 20-10 10-10 10 0 5c0 5 0 5-7 13l-8 7-25 0-25 0-8-7z"/>
		<path d="M2260 3295c-5-5-5-5-10-5l-5 0-15-15-15-15-20 0-20 0-5 5-5 5-20 0c-19 0-20 0-22-2-2-2-2-2-2-18 0-16 0-16 2-18 2-2 3-2 32-2l30 0 8-7c7-8 7-8 7-13l0-5 10-10 10-10 0-5c0-7 3-10 10-10l5 0 10-10 10-10 15 0 15 0 10 10 10 10 5 0c7 0 10 3 10 10 0 8 2 10 15 10 13 0 15-2 15-10l0-5 10-10 10-10 0-5 0-5 12-13 13-12 10 0 10 0 8 7 7 8 0 10 0 10-10 10-10 10 0 5c0 5 0 5-5 10-5 5-5 5-5 10 0 5 0 5-7 13l-8 7-20 0c-27 0-25-2-25 25l0 20-12 13-13 12-5 0c-5 0-5 0-10 5l-5 5-15 0-15 0-5-5z"/>
		<path d="M8047 3293c-7-8-7-8-7-13l0-5-10-10c-10-10-10-10-10-15 0-4 0-5-4-8-11-10-7-13 20-12l20 1 7 7c7 7 7 7 7 12 0 5 0 5 5 10l5 5 0 15c0 20 0 20-15 20l-10 0-8-7z"/>
		<path d="M1917 3263l-7-8 0-10c0-15 0-15 20-15l15 0 13 13 13 12 0 5c0 9-2 10-26 10l-20 0-8-7z"/>
		<path d="M1997 3263c-7-8-7-8-7-13 0-5 0-5-5-10l-5-5 0-10 0-10-5-5c-5-5-5-5-5-10 0-5 0-5 5-10 5-4 5-5 5-10 0-5 1-7 6-10 2-2 3-3 3-5 0-2-1-3-3-5-6-4-6-5-6-15 0-10 0-11-6-15-4-3-4-6 1-10 5-4 5-7 1-10-6-4-6-2-6-50l0-45 5-5c8-7 8-14 0-19-3-2-4-4-4-6 0-2 1-4 4-6 8-5 8-12 0-19l-5-5 0-100 0-100-5-6c-9-10-10-10-18-1-4 3-8 8-9 9l-3 3-15 0-15 0-5-5c-3-2-6-5-7-6-3-3-2-7 2-10 4-3 5-4 5-10 0-7 3-9 15-9l10 0 5-5 5-5 15 0c18 0 20 1 20 10 0 9 2 10 20 10l15 0 5-5 5-5 25 0 25 0 5 5c4 5 5 5 10 5 11 0 10-6 10 97l0 88 5 5 5 5 0 70 0 70 5 5 5 5 0 93c0 116 3 102-25 102l-20 0-5-5c-4-5-5-5-10-5-5 0-6 0-10 5l-5 5-15 0-15 0-8-7z"/>
		<path d="M6085 3260l-10-10-5 0c-7 0-10-3-10-10 0-8-12-20-20-20-5 0-5 0-13-7l-7-8 0-10 0-10 15-15 15-15 0-5 0-5 10-10 10-10 0-5 0-5 25-25 25-25 0-10 0-10 7-8c8-7 8-7 13-7 7 0 10-3 10-10l0-5 20-20c11-11 23-24 27-27 8-9 8-9 16 0 12 13 11 12 17 12l5 0 13 12 12 13 0 5c0 7 3 10 10 10 9 0 10 2 10 20l0 15-15 15-15 15 0 5 0 5-15 15-15 15 0 5c0 5 0 5-5 10-5 5-5 5-5 10l0 5-12 13-13 12-5 0c-7 0-10 3-10 10l0 5-10 10-10 10 0 5 0 5-23 22-22 23-5 0-5 0-10-10z"/>
		<path d="M5782 3257c-2-2-2-4-2-17l0-15 27-28 28-27 15 0c21 0 20-1 20 20l0 15-7 8c-8 7-8 7-13 7-7 0-10 3-10 10 0 5 0 5-7 13l-8 7-10 0-10 0-5 5c-6 5-14 6-18 2z"/>
		<path d="M7609 3235c-4-5-5-5-9-5l-5 0-33-32-32-33 0-10 0-10 10-10 10-10 0-5 0-5 87-88 88-87 10 0 10 0 33 33 33 32 0 5c0 5-1 5-6 10-5 5-5 5-5 10 0 5 0 5-5 10-5 5-5 5-5 10l0 5-17 18-18 17-5 0c-7 0-10 3-10 10l0 5-50 50-50 50 0 5c0 5 0 5-5 10-3 3-8 9-12 12-7 8-9 9-14 3z"/>
		<path d="M7972 3198c-2-2-2-4-2-8 0-5 0-5-5-10-5-5-5-5-5-10 0-7-3-10-10-10-13 0-15-11-3-22l8-8 10 0 10 0 13 12 12 13 0 5c0 5 0 5 5 10l5 5 0 10c0 15 0 15-20 15-15 0-15 0-18-2z"/>
		<path d="M5912 3178c-2-3-2-4-2-13l0-10 7-8 8-7 35 0 35 0 8 7 7 8 0 10c0 9 0 10-2 13l-3 2-45 0-45 0-3-2z"/>
		<path d="M1037 3113c-7-8-7-8-7-13 0-5 0-5-5-10l-5-5 0-15 0-15 5-5c5-5 5-5 5-10 0-5 0-5-5-10l-5-5 0-30 0-30 5-5 5-5 0-10 0-10-5-5c-8-7-8-13 0-20 8-7 8-13 0-20l-5-5 0-45 0-45 2-3c2-2 4-2 8-2l5 0 10-10 10-10 40 0 40 0 5 5c5 5 5 5 10 5 5 0 5 0 10 5l5 5 10 0 10 0 5 5c5 5 5 5 10 5 5 0 5 0 10 5l5 5 15 0 15 0 10 10 10 10 5 0c7 0 10 3 10 10 0 7 3 10 10 10 8 0 20 12 20 20 0 5 0 5 5 10l5 5 0 10 0 10 5 5 5 5 0 40 0 40-5 5c-5 5-5 5-5 10 0 5 0 5-5 10-5 5-5 5-5 10l0 5-22 23-23 22-5 0-5 0-10 10-10 10-25 0-25 0-5 5c-5 5-5 5-10 5-5 0-5 0-10 5l-5 5-15 0-15 0-5-5c-4-5-5-5-10-5-5 0-6 0-10 5l-5 5-25 0-25 0-8-7zm161-55l12-13 0-5c0-9 2-10 20-10l15 0 5-5c5-5 5-5 10-5 7 0 10-3 10-10 0-5 0-5 5-10l5-5 0-30 0-30-5-5-5-5 0-15c0-18-1-20-10-20l-5 0-15-15-15-15-10 0-10 0-5-5c-5-5-5-5-10-5-5 0-5 0-10-5l-5-5-30 0-30 0-5-5c-7-8-13-8-23 3l-7 7 0 50 0 50 5 5 5 5 0 15 0 15-5 5-5 5 0 35 0 35 2 3 3 2 50 0 50 0 13-12z"/>
		<path d="M7862 3098l-22-23 0-25 0-25 12-13 13-12 30 0 30 0 8 7c7 8 7 8 7 13l0 5 10 10 10 10 0 10 0 10-5 5-5 5 0 10 0 10-12 13-13 12-20 0-20 0-23-22z"/>
		<path d="M2412 3078c-2-3-2-3-2-23l0-20-5-5-5-5 0-10 0-10 5-5c3-3 8-9 12-12 7-8 9-9 14-2l4 4 10 0 10 0 8 8c11 11 11 13-3 27l-10 10 0 20c0 26 1 25-20 25-15 0-15 0-18-2z"/>
		<path d="M6887 2983l-7-8 0-15 0-15 12-13 13-12 5 0c8 0 20-12 20-20l0-5 10-10 10-10 0-5 0-5 10-10 10-10 0-5c0-5 0-6 5-10 5-5 5-5 5-10l0-5-15-15-15-15 0-5c0-7-3-10-10-10-7 0-10-3-10-10l0-5-10-10-10-10 0-5 0-5-15-15-15-15 0-15c0-21-1-20 25-20 24 0 25 0 25 10l0 5 20 20 20 20 0 5c0 8 12 20 20 20 6 0 5-1 17 12 8 9 8 9 16 0 4-3 16-16 27-27l20-20 0-5c0-5 0-5 5-10 5-5 5-5 5-10 0-5 0-5 7-13l8-7 20 0c26 0 25 0 25 15l0 10-5 5c-5 5-5 5-5 10 0 5 0 5-5 10-5 5-5 5-5 10l0 5-25 25-25 25 0 5c0 5 0 5-5 10l-5 5 0 20 0 20 25 25 25 25 0 5 0 5 10 10 10 10 0 5 0 5 10 10 10 10 0 20c0 24 0 25-10 25l-5 0-53-53c-29-29-55-56-59-59-8-9-9-9-18 1-5 6-5 6-5 11l0 5-10 10-10 10 0 5 0 5-22 23-23 22-5 0c-7 0-10 3-10 10 0 8-2 10-15 10l-10 0-8-7z"/>
		<path d="M7807 2963c-6-7-7-8-7-12 0-6-1-8-5-10-3-2-4-4-4-6 0-2 1-4 4-6 4-2 5-4 5-10 0-3 1-5 5-10 9-10 10-10 16-3 4 4 5 4 9 4 8 0 10 2 10 15l0 10 10 10 11 10 0 5c0 9-2 10-26 10l-20 0-8-7z"/>
		<path d="M2412 2948c-2-3-2-3-2-18l0-15-5-5-5-5 0-15 0-15 7-8 8-7 10 0 10 0 8 7 7 8 0 35 0 35-2 3c-3 2-3 2-18 2-15 0-15 0-18-2z"/>
		<path d="M7892 2928c-1-1-4-4-7-7l-5-6 0-10 0-10-25-25-25-25 0-5c0-5 0-5 10-15l10-10 0-5 0-5 15-15 15-15 0-5 0-5 12-13 13-12 5 0 5 0 70-70 70-70 10 0 10 0 30 30 30 30 5 0c5 0 6 0 9 3 1 2 4 5 6 6 6 4 5 8 0 12-4 2-5 4-5 10 0 6-3 9-10 9l-5 0-30 30-30 30-5 0c-7 0-10 3-10 10 0 7-3 10-10 10l-5 0-28 27-27 28 0 5c0 8-12 20-20 20l-5 0-18 17-17 18 0 5c0 8-12 20-20 20-4 0-5 0-9 5-4 4-6 5-9 3z"/>
		<path d="M4087 2893l-17-18 0-5 0-5-10-10-10-10 0-5 0-5-30-30-30-30 0-5 0-5-20-20-20-20 0-5 0-5-10-10-10-10 0-10c0-9 0-10-2-13l-3-2-25 0-25 0-5-5c-5-5-5-5-10-5l-5 0-13-12-12-13 0-30 0-30 7-8c8-7 8-7 13-7 5 0 5 0 10-5l5-5 20 0 20 0 23 23 22 22 0 15c-1 20 2 25 11 15l4-5 20 0 20 0 18 17 17 18 0 5 0 5 25 25 25 25 0 5 0 5 15 15 15 15 0 5 0 5 15 15 15 15 0 5 0 5 15 15 15 15 0 10 0 10-27 28-28 27-10 0-10 0-18-17z"/>
		<path d="M3872 2898c-2-2-2-4-2-8 0-5 0-5-5-10l-5-5 0-20 0-20 12-12 13-13 5 0c5 0 5 0 13 8l7 7 0 30 0 30-7 8-8 7-10 0c-9 0-10 0-13-2z"/>
		<path d="M5790 2895c-5-5-5-5-10-5-5 0-5 0-13-7l-7-8 0-6c0-9-5-11-11-3-4 4-5 4-9 4-5 0-6 0-10 5l-5 5-15 0-15 0-8-8c-7-7-7-7-7-12 0-5 0-5 7-12l8-8 10 0 10 0 5-5 5-5 10 0c14 0 15-1 15-15l0-10 17-18 18-17 25 0 25 0 10 10 10 10 5 0c5 0 5 0 13 7l7 8 0 23c0 26 0 27-6 33-4 3-4 4-4 9l0 5-12 13-13 12-25 0-25 0-5-5z"/>
		<path d="M7730 2895c-5-5-5-5-10-5l-5 0-13-12-12-13 0-5c0-5 0-6-5-10-5-5-5-5-5-10 0-5 0-5 5-10l5-5 0-10 0-10 18-17 17-18 15 0 15 0 5 5c5 5 5 5 10 5 8 0 20 12 20 20l0 5 10 10 10 10 0 15 0 15-22 23-23 22-15 0-15 0-5-5z"/>
		<path d="M5898 2873c-11-11-11-14 0-26l7-7 15 0 15 0 5-5 5-5 10 0 10 0 4 3c1 2 4 5 6 6 6 4 5 8 0 12-4 2-5 4-5 10 0 4-1 5-7 12l-8 7-25 0-25 0-7-7z"/>
		<path d="M6007 2873l-7-8 0-10c0-13 2-15 10-15 5 0 5 0 10-5l5-5 32 0 33 0 0-7c0-8-1-9-6-13-4-3-4-7 0-10 11-9 16-15 16-20 0-5 0-5 7-12 11-12 15-11 26 0 5 5 10 10 12 11 5 4 5 8 1 11-11 9-16 15-16 20 0 5 0 5-7 13l-8 7-12 0-13 0 0 8 0 7-12 13-13 12-5 0c-5 0-5 0-10 5l-5 5-15 0-15 0-8-7z"/>
		<path d="M2232 2828l-12-13 0-5c0-5 0-5-5-10l-5-5 0-10 0-10-7-8c-8-7-8-7-13-7-5 0-5 0-10-5l-5-5-30 0-30 0-7-7c-11-12-11-15 0-26l7-7 30 0 30 0 5 5c5 5 5 5 10 5 5 0 6 0 10 5 4 5 5 5 10 5l5 0 15-15 15-15 25 0 25 0 18 17 17 18 0 5c0 5 0 5 7 13l8 7 10 0 10 0 5 5c5 5 5 5 10 5 5 0 5 0 13 7 7 8 7 8 7 13 0 5 0 5 5 10l5 5 0 15c0 20 0 20-15 20l-10 0-20-20-20-20-5 0c-9 0-10 2-10 15 0 13-2 15-10 15-5 0-5 0-10 5l-5 5-30 0-30 0-13-12z"/>
		<path d="M3252 2838c-2-3-2-3-2-18l0-15-15-15-15-15 0-5c0-8-2-10-15-10l-10 0-13-12-12-13 0-5 0-5-12-13-13-12-5 0c-4 0-5 0-9-4-10-12-12-7-11 24l0 25 5 5 5 5 0 15 0 15-5 5-5 5 0 10 0 10-7 7c-8 8-8 8-13 8-5 0-5 0-13-8l-7-7 0-20 0-20-5-5-5-5 0-30 0-30 5-5 5-5 0-10 0-10-5-5-5-5 0-10 0-10-5-5-5-5 0-10 0-10 5-5c5-5 5-5 5-10 0-5 0-5 5-10l5-5 0-15 0-15-5-5-5-5 0-20 0-20 5-5c5-5 5-5 5-10 0-9 2-10 20-10l15 0 8 7 7 8 0 50 0 50 10 10 10 10 0 5c0 8 12 20 20 20l5 0 33-33 32-32 0-5 0-5 10-10 10-10 0-5 0-5 10-10 10-10 0-15 0-15 17-18 18-17 10 0 10 0 13 12 12 13 0 10c0 13-2 15-10 15-7 0-10 3-10 10 0 5 0 5-5 10-5 5-5 5-5 10 0 5 0 5-5 10-5 5-5 5-5 10 0 5 0 5-5 10-5 5-5 5-5 10l0 5-40 40-40 40 0 10 0 10-10 10c-10 10-10 10-10 15l0 5 22 22 23 23 5 0c8 0 20 12 20 20l0 5 10 10c9 9 10 10 10 14 0 6 1 8 5 10 3 2 4 4 4 6 0 2-1 4-4 6-4 2-5 4-5 10 0 8-2 9-25 9-20 0-20 0-23-2z"/>
		<path d="M5060 2795c-5-5-5-5-10-5-5 0-5 0-10-5l-5-5-15 0-15 0-4-3c-1-2-4-5-6-6-5-4-5-8-1-11 6-4 6-4 6-20l0-15-5-5-5-5 0-70 0-70 5-5c5-5 5-5 5-10 0-5 0-5-5-10l-5-5 0-15 0-15-5-5c-9-8-8-12 5-25l10-10 0-10c0-10 0-11-6-15-4-3-4-7 1-11 2-1 5-4 6-6l4-3 15 0 15 0 8 7 7 8 0 65 0 65 2 3 3 2 25 0 25 0 38-37 37-38 0-5 0-5 15-15 15-15 0-5c0-7 3-10 10-10l5 0 10-10 10-10 5 0 5 0 10-10 10-10 10 0 10 0 8 8c10 10 11 14 2 22-5 4-5 5-5 10 0 7-3 10-10 10-7 0-10 3-10 10l0 5-56 56c-30 30-57 57-59 58-5 4-5 8 0 12 2 1 5 4 6 6 3 3 4 3 9 3 5 0 5 0 10 5l5 5 10 0c13 0 15 2 15 10l0 5 20 20 20 20 0 15 0 15-10 10-10 10 0 10 0 10-7 8-8 7-10 0-10 0-10 10-10 10-5 0c-5 0-5 0-10 5-5 5-5 5-10 5-5 0-5 0-10 5l-5 5-40 0-40 0-5-5zm70-50c5-5 5-5 10-5 5 0 5 0 10-5l5-5 10 0 10 0 8-7c7-8 7-8 7-13 0-5 1-7 6-10 2-2 3-3 3-5 0-2-1-3-3-5-6-4-6-5-6-15 0-13-2-15-10-15-5 0-5 0-10-5l-5-5-15 0-15 0-10-10-10-10-30 0-30 0-3 2-2 3 0 55 0 55 2 3 3 2 35 0 35 0 5-5z"/>
		<path d="M1869 2795c-4-5-5-5-9-5-8 0-20-13-20-20 0-5 0-5 7-12l8-8 10 0 10 0 8 8 7 7 0 10 0 10-5 6c-9 10-10 10-16 4z"/>
		<path d="M3872 2778c-2-3-2-3-2-23l0-20-5-5-5-5 0-10c0-13 2-15 10-15 5 0 5 0 10-5l5-5 10 0c9 0 10 0 13 2l2 3 0 40 0 40-2 3c-3 2-3 2-18 2-15 0-15 0-18-2z"/>
		<path d="M7657 2763l-17-18 0-10c0-12 2-15 10-15 4 0 5 0 9-4 5-7 7-6 14 2 4 3 9 9 12 12 5 5 5 5 5 10 0 5 0 5 5 10l5 5 0 10c0 14-1 15-15 15l-10 0-18-17z"/>
		<path d="M5782 2748l-2-3 0-30 0-30 2-3c2-1 4-2 8-2 4 0 5 0 9-4 5-7 7-6 14 2 4 3 9 9 12 12l5 5 0 15 0 15-12 13-13 12-10 0c-9 0-10 0-13-2z"/>
		<path d="M6112 2728c-2-3-2-4-2-13l0-10-11-11c-6-6-12-12-14-13-6-4-5-8 0-12 4-2 5-4 5-10 0-8 2-9 25-9 24 0 25 0 25 10 0 5 0 5 5 10 5 5 5 5 5 10 0 5 0 5 5 10l5 5 0 10 0 10-7 8-8 7-15 0c-15 0-15 0-18-2z"/>
		<path d="M7587 2663l-27-28 0-10 0-10 7-8 8-7 10 0 10 0 13 12 12 13 0 5 0 5 15 15 16 15 0 5c0 5-1 5-8 12l-8 8-10 0-10 0-28-27z"/>
		<path d="M5787 2643l-7-8 0-30 0-30 7-8 8-7 15 0 15 0 5 5 5 5 15 0c18 0 19 0 20 10 1 4 1 7 3 7 7 5 8 9 2 14-2 1-5 4-6 6l-4 3-15 0-15 0-4 3c-1 2-4 5-6 6-5 4-5 7 0 11 5 4 5 7 0 11-2 1-5 4-6 6l-4 3-10 0-10 0-8-7z"/>
		<path d="M6070 2635l-5-5-10 0-10 0-13-13-12-12 0-5c0-5 0-5 7-12l8-8 10 0 10 0 18 17 17 18 0 10c0 17-10 21-20 10z"/>
		<path d="M5947 2622c-12-13-11-12-17-12l-5 0-23-23-22-22 0-5c0-5 0-5 5-10 5-4 5-5 5-10l0-5 20-20 20-20 0-5 0-5 10-10 10-10 0-5 0-5 40-40 40-40 0-5 0-5 15-15 15-15 0-5c0-4 0-6 2-8l3-2 25 0 25 0 8 8c4 4 10 11 14 14 9 10 13 9 13-1 0-6 0-6 5-11l5-5 0-10 0-10 17-18 18-17 20 0 20 0 23 22 22 23 0 20 0 20-22 23-23 22-25 0-25 0-3-2c-1-2-2-4-2-8 0-7-3-10-10-10l-5 0-23 23-22 22 0 5 0 5-25 25-25 25 0 5 0 5-10 10-10 10 0 5 0 5-20 20-20 20 0 5 0 5-20 20c-11 11-23 24-27 27-8 9-8 9-16 0z"/>
		<path d="M4049 2615c-4-5-5-5-9-5-5 0-5 0-15-10l-10-10-5 0-5 0-13-12-12-13 0-5c0-5 0-6-5-10-5-5-5-5-5-10 0-5 0-5 5-10 5-4 5-5 5-10l0-5 17-18 18-17 5 0c7 0 10-3 10-10l0-5 12-13 13-12 5 0c7 0 10-3 10-10 0-5 0-5 5-10 5-5 5-5 5-10 0-5 0-5 5-10 5-5 5-5 5-10l0-5 25-25 25-25 0-5 0-5 22-23 23-22 5 0c4 0 5 0 9-4 2-3 5-5 6-5 1 0 4 2 6 5 4 4 5 4 9 4 7 0 10 3 10 10l0 5 20 20 20 20 0 10 0 10-5 5c-5 5-5 5-5 10 0 5 0 5-5 10l-5 5 0 10 0 10-10 10-10 10 0 5 0 5-12 13-13 12-5 0c-7 0-10 3-10 10l0 5-15 15-15 15 0 5 0 5-40 40-40 40 0 5c0 7-3 10-10 10-4 0-5 0-9 5-2 2-5 4-6 4-1 0-4-2-6-4z"/>
		<path d="M5787 2523l-7-8 0-40 0-40 2-3c3-2 3-2 18-2l15 0 8 7 7 8 0 40 0 40-2 3c-3 2-3 2-18 2l-15 0-8-7z"/>
		<path d="M3867 2513l-7-8 0-25 0-25 7-7c10-11 16-11 23-3 4 5 5 5 10 5 4 0 6 0 8 2l2 3 0 25 0 25-7 8-8 7-10 0-10 0-8-7z"/>
		<path d="M3862 2398l-2-3 0-35 0-35 5-5c5-5 5-5 5-10 0-10 29-16 38-8l2 3 0 45 0 45-2 3c-3 2-3 2-23 2-20 0-20 0-23-2z"/>
		<path d="M5782 2388c-2-3-2-3-2-18l0-15-10-10c-10-10-10-10-10-15 0-5 0-5 10-15l10-10 0-10c0-15 0-15 20-15l15 0 8 7 7 8 0 35 0 35-5 5c-5 5-5 5-5 10 0 9-2 10-20 10-15 0-15 0-18-2z"/>
		<path d="M1927 2342c-7-7-7-7-7-12 0-5 0-5 7-12l8-8 30 0 30 0 3-2c5-5 4-12-3-18l-5-5 0-20c0-26-1-25 20-25l15 0 8 7 7 8 0 25 0 25-10 10-10 10 0 5c0 4 0 6-2 8l-3 2-25 0-25 0-5 5-5 5-10 0-10 0-8-8z"/>
		<path d="M2070 2345c-5-5-5-5-10-5-13 0-15-11-3-22l8-8 45 0 45 0 8 8c9 9 10 15 5 20l-3 2-30 0-30 0-5 5-5 5-10 0-10 0-5-5z"/>
		<path d="M2222 2338c-3-4-3-31 0-35 4-5 12-4 18 2l5 5 10 0 10 0 5-5 5-5 10 0 10 0 8 7 7 8 0 10c0 9 0 10-2 13l-3 2-40 0-40 0-3-2z"/>
		<path d="M2345 2300l-10-10-10 0-10 0-13-12-12-13 0-20 0-20 12-13 13-12 20 0 20 0 5 5 5 5 10 0c13 0 15 2 15 10l0 5 10 10 10 10 0 15 0 15-5 5c-5 5-5 5-5 10 0 5 0 5-7 13l-8 7-15 0-15 0-10-10z"/>
		<path d="M1027 2243l-7-8 0-135 0-135-5-5c-5-5-5-5-5-10 0-5 0-5-5-10-5-5-5-5-5-10 0-5 0-5 5-10 5-4 5-5 5-10l0-5 12-13 13-12 50 0 50 0 5 5 5 5 30 0 30 0 5-5 5-5 20 0 20 0 5 5c5 5 5 5 10 5 8 0 21 13 21 20 0 5-1 5-8 12l-8 8-100 0-100 0-3 2-2 3 0 55 0 55 7 8 8 7 30 0 30 0 5-5 5-5 15 0 15 0 8 7 7 8 0 10 0 10-7 8-8 7-55 0-55 0-3 2-2 3 0 45 0 45 2 3 3 2 95 0 95 0 3 2c2 3 2 4 2 13 0 15 1 15-25 15l-20 0-5 5-5 5-65 0-65 0-5 5-5 5-20 0-20 0-8-7z"/>
		<path d="M1987 2192c-5-5-10-10-12-11-6-4-5-8 0-12 4-2 5-4 5-10 0-8 3-9 20-9l15 0 7 7 8 8 0 15c0 21 1 20-20 20l-15 0-8-8z"/>
		<path d="M7552 2168c-7-6-12-13-12-18l0-5-20-20-20-20 0-5c0-5 0-6-5-10-5-5-5-5-5-10l0-5 22-22 23-23 5 0 5 0 18-17 17-18 0-5c0-7 3-10 10-10l5 0 15-15 15-15 5 0c7 0 10-3 10-10 0-7 3-10 10-10l5 0 25-25 25-25 5 0 5 0 33 33 32 32 0 25 0 25-2 3c-2 2-4 2-8 2l-5 0-15 15-15 15-5 0c-5 0-5 0-10 5-5 5-5 5-10 5-7 0-10 3-10 10 0 7-3 10-10 10-8 0-20 12-20 20l0 5-17 18-18 17-5 0c-5 0-5 0-10 5-5 5-5 5-10 5l-5 0-15 15-15 15-5 0c-4 0-5 0-9 5-4 4-6 5-9 3z"/>
		<path d="M7132 2138l-12-13 0-5c0-8-12-20-20-20l-5 0-33-32-32-33 0-5c0-7-3-10-10-10l-5 0-10-10-10-10-5 0-5 0-13 13-12 12 0 5 0 5-12 13-13 12-5 0-5 0-13 12-12 13 0 5 0 5-17 18-18 17-15 0c-21 0-20 1-20-20l0-15 15-15 15-15 0-5 0-5 20-20 20-20 0-5 0-5 30-30 30-30 0-35 0-35-5-5-5-5 0-35 0-35-5-5-5-5 0-15 0-15-5-5c-5-5-5-5-5-10 0-5 0-5 5-10 5-4 5-5 5-10l0-5 12-13 13-12 10 0 10 0 8 7c6 7 7 8 7 12 0 6 1 8 5 10 5 4 6 8 1 11-6 4-6 4-6 20l0 15 10 10 10 10 0 15 0 15-5 5c-5 5-5 5-5 10 0 5 0 5 5 10l5 5 0 40 0 40 15 15 15 15 0 5 0 5 10 10 10 10 0 5c0 8 12 20 20 20 7 0 10 3 10 10 0 5 0 5 5 10 5 5 5 5 5 10l0 5 30 30 30 30 0 20c0 26 0 25-15 25l-10 0-13-12z"/>
		<path d="M2020 2135l-5-5-15 0-15 0-8-7-7-8 0-10 0-10-5-5c-5-5-5-5-5-10 0-5 0-5-5-10-5-5-5-5-5-10 0-5 0-5 5-10l5-5 0-10 0-10 7-8 8-7 10 0 10 0 5-5c5-5 5-5 10-5 11 2 12-5 2-14-7-6-7-6-12-6-4 0-6-1-8-2l-2-3 0-35 0-35 2-3c3-2 3-2 23-2 26 0 25 0 25 15l0 10-5 5c-5 5-5 5-5 10 0 5 0 5 5 10l5 5 0 10c0 13 2 15 10 15 8 0 20 12 20 20l0 5 10 10 10 10 0 5c0 5 0 5 5 10 5 5 5 5 5 10 0 5 0 5 5 10 5 5 6 5 6 10 0 5-1 5-6 10-5 4-5 5-5 10l0 5-22 23-23 22-15 0-15 0-5-5z"/>
		<path d="M3880 2135c-5-5-5-5-10-5l-5 0-18-17-17-18 0-5c0-5 0-5-5-10l-5-5 0-15 0-15 5-5c5-5 5-5 5-10 0-8 12-20 20-20 5 0 5 0 10-5l5-5 35 0 35 0 18 17 17 18 0 10c0 10 0 11 6 15 2 2 3 3 3 5 0 2-1 3-3 5-6 4-6 5-6 15l0 10-17 18-18 17-5 0c-5 0-5 0-10 5l-5 5-15 0-15 0-5-5z"/>
		<path d="M5940 2135c-5-5-5-5-10-5-5 0-5 0-10-5-5-5-5-5-10-5-5 0-5 0-13-7l-7-8 0-30 0-30 17-18 18-17 30 0 30 0 3 2c2 2 2 4 2 8l0 5 10 10 10 10 0 5c0 5 0 5 5 10l5 5 0 10 0 10-5 5c-5 5-5 5-5 10l0 5-12 13-13 12-5 0c-5 0-5 0-10 5l-5 5-10 0-10 0-5-5z"/>
		<path d="M8102 2128c-2-2-2-4-2-8l0-5-15-15-15-15 0-5 0-5-10-10-10-10 0-5 0-5-10-10-10-10 0-5c0-5 0-5-5-10-5-5-5-5-5-10 0-5 0-5-5-10-5-5-5-5-5-10l0-5-20-20-20-20 0-5c0-5 0-5-5-10-5-5-5-5-5-10l0-5-15-15-15-15 0-10 0-10-10-10-10-10 0-10 0-10 10-10 10-10 0-5c0-7 3-10 10-10 5 0 5 0 10-5l5-5 25 0 25 0 3 2c2 2 2 4 2 8l0 5 10 10 10 10 0 5 0 5 15 15 15 15 0 5c0 5 0 5 5 10 5 5 5 5 5 10 0 5 0 5 5 10 5 5 5 5 5 10l0 5 15 15 15 15 0 5 0 5 10 10 10 10 0 5 0 5 10 10 10 10 0 5 0 5 10 10 10 10 0 5 0 5 10 10 10 10 0 5c0 5 0 6 5 10 5 5 6 5 6 10 0 5-1 5-6 10-5 4-5 5-5 10 0 8-2 10-15 10l-10 0-15 15-15 15-15 0c-15 0-15 0-18-2z"/>
		<path d="M5815 2070l-10-10-5 0c-8 0-10-2-10-15 0-15-1-15 25-15l20 0 13 13c8 8 15 15 17 16 5 4 5 8 0 12-2 1-5 4-6 6l-4 3-15 0-15 0-10-10z"/>
		<path d="M6042 2058c-7-8-2-28 8-28l5 0 10-10 10-10 5 0c5 0 5 0 10-5l5-5 10 0 10 0 8 8c7 7 8 7 8 12 0 7-13 20-21 20l-5 0-10 10-10 10-20 0c-20 0-20 0-23-2z"/>
		<path d="M5070 1995c-5-5-5-5-10-5-5 0-5 0-10-5-5-5-5-5-10-5l-5 0-23-22-22-23 0-5c0-5 0-5-5-10l-5-5 0-25 0-25 2-3c2-2 4-2 8-2l5 0 20-20 20-20 35 0 35 0 5-5c5-5 5-5 10-5l5 0 13-12 12-13 0-5 0-5 10-10 10-10 0-25 0-25-2-3c-2-2-4-2-8-2-5 0-5 0-10-5-5-5-5-5-10-5-5 0-5 0-10-5l-5-5-10 0-10 0-5-5-5-5-30 0-30 0-5 5c-5 5-5 5-10 5-5 0-5 0-10 5-5 5-5 5-10 5-5 0-6 0-10 5-7 8-13 8-23-3l-7-7 0-10 0-10 17-18 18-17 5 0c5 0 5 0 10-5l5-5 45 0 45 0 5 5 5 5 20 0 20 0 10 10 10 10 5 0c8 0 20 12 20 20l0 5 10 10 10 10 0 5c0 5 0 5 5 10l5 5 0 25 0 25-5 5-5 5 0 10 0 10-17 18-18 17-5 0-5 0-10 10-10 10-20 0-20 0-5 5-5 5-10 0-10 0-5 5-5 5-10 0-10 0-13 13-12 12 0 5 0 5 17 17 18 18 35 0 35 0 5-5c5-5 5-5 10-5 5 0 6 0 10-5 7-8 13-8 23 3l7 7 0 10 0 10-12 13-13 12-5 0c-5 0-5 0-10 5l-5 5-15 0-15 0-5 5-5 5-15 0-15 0-5-5z"/>
		<path d="M5752 1988l-12-13 0-15 0-15 7-8 8-7 10 0 10 0 8 7 7 8 0 25 0 25-2 3c-3 2-4 2-13 2l-10 0-13-12z"/>
		<path d="M3837 1973l-7-8 0-70c0-75 0-71 6-75 2-2 3-3 3-5 0-2-1-3-3-5-5-3-6-5-6-10 0-5 0-6-5-10l-5-5 0-10 0-10 5-5 5-5 0-30 0-30 5-5c5-5 5-5 5-10 0-4 0-6 2-8l3-2 50 0 50 0 8 8c10 10 11 14 2 22l-5 5 0 30 0 30 5 5 5 5 0 25 0 25-5 5-5 5 0 10 0 10 5 5 5 5 0 45 0 45-12 13-13 12-45 0-45 0-8-7z"/>
		<path d="M3082 1958c-2-2-2-4-2-8 0-5 0-5-5-10l-5-5 0-125c0-98 0-125-1-126-1-1-3-3-5-4-5-3-4-7 1-11 4-2 5-4 5-10 0-7 13-19 20-19 5 0 5 0 10-5l5-5 15 0 15 0 5 5 5 5 10 0 10 0 5-5 5-5 10 0 10 0 4 5c2 2 5 4 6 4 1 0 4-2 6-4l4-5 10 0 10 0 5 5c5 5 5 5 10 5 5 0 5 0 13 7l7 8 0 10 0 10-7 8c-8 7-8 7-13 7-5 0-5 0-10 5l-5 5-25 0-25 0-5-5-5-5-10 0-10 0-5 5-5 5-10 0c-9 0-10 0-13 2l-2 3 0 80 0 80 5 5 5 5 0 10 0 10-5 5-5 5 0 25 0 25-2 3c-3 2-3 2-18 2-15 0-15 0-18-2z"/>
		<path d="M5939 1945c-4-5-5-5-9-5-5 0-6 0-10-5-5-5-5-5-10-5-8 0-20-12-20-20 0-5 0-5-5-10-3-3-8-9-12-12-7-8-9-9-14-2-4 4-5 4-9 4-5 0-5 0-15 10l-10 10-20 0c-26 0-25 0-25-15 0-14 1-15 15-15l10 0 10-10 10-10 5 0c5 0 6 0 10-5 4-5 5-5 10-5 6 0 6 0 10 5 4 5 4 5 10 5l5 0 8-8c7-7 7-7 7-12l0-5 12-13 13-12 5 0c5 0 5 0 10-5l5-5 10 0 10 0 5 5c5 5 5 5 10 5 5 0 5 0 10 5 5 5 5 5 10 5l5 0 13 13 12 12 0 20 0 20-5 5-5 5 0 10 0 10-7 8c-8 7-8 7-13 7-5 0-5 0-10 5l-5 5-10 0-10 0-4 5c-2 2-5 4-6 4-1 0-4-2-6-4z"/>
		<path d="M7800 1925l-15-15-5 0c-7 0-10-3-10-10 0-5 0-5-5-10l-5-5 0-20 0-20 5-5 5-5 0-10c0-13 2-15 10-15 5 0 5 0 10-5 5-5 5-5 10-5 6 0 5 1 17-12 7-8 9-9 14-2 4 4 5 4 9 4 5 0 6 0 10 5 5 5 5 5 10 5l5 0 13 12 12 13 0 20c0 21 0 21 6 25 2 2 3 3 3 5 0 2-1 3-3 5-6 4-6 5-6 15 0 13-2 15-10 15l-5 0-10 10-10 10-5 0c-5 0-5 0-10 5l-5 5-10 0-10 0-15-15z"/>
		<path d="M1992 1867c-2-2-2-3-2-37l0-35 4-3c2-2 4-5 6-7l2-4 11-1c12 0 12 0 15 2l2 3 0 35 0 35-2 3c-2 2-4 2-8 2-5 0-6 0-10 5-6 6-14 7-18 2z"/>
		<path d="M6032 1838c-2-3-2-4-2-13l0-10 7-8c8-7 8-7 13-7 5 0 5 0 10-5 5-5 5-5 10-5 5 0 5 0 10-5 5-5 5-5 10-5 7 0 10-3 10-10 0-5 0-5 5-10 5-5 5-5 5-10 0-5 0-5 5-10l5-5 0-30 0-30 2-3c3-2 3-2 18-2l15 0 8 7 7 8 0 25 0 25-5 5c-5 5-5 5-5 10l0 5-12 13-13 12-5 0c-9 0-10 2-10 20l0 15-7 8-8 7-20 0-20 0-5 5-5 5-10 0c-9 0-10 0-13-2z"/>
		<path d="M1922 1777l-12-12 0-5c0-9 1-10 25-10l20 0 5-5 5-5 10 0 10 0 8 7 7 8 0 11c0 13 0 13-9 13-6 1-7 1-11 6l-5 5-20 0-20 0-13-13z"/>
		<path d="M2062 1778c-2-3-2-4-2-13 0-9 0-10 2-13l3-2 65 0 65 0 3 2c5 5 4 11-5 20l-8 8-60 0-60 0-3-2z"/>
		<path d="M7800 1745c-5-5-5-5-10-5-5 0-5 0-13-7l-7-8 0-140c0-110 0-140-1-141-1-1-3-3-5-4-5-3-4-7 1-11 4-2 5-4 5-10 0-6 3-9 10-9 5 0 6 0 10-5 7-7 13-7 20 0l5 5 10 0 10 0 5-5c4-5 5-5 10-5 4 0 5 0 9-4 2-3 5-5 6-5 1 0 4 2 6 5 4 4 5 4 9 4 4 0 6 1 8 2l2 3 0 140 0 140 5 5 5 5 0 20c0 26 1 25-20 25l-15 0-5 5-5 5-25 0-25 0-5-5z"/>
		<path d="M4140 1635c-5-5-5-5-10-5-7 0-10-3-10-10 0-5 0-5-5-10-5-5-5-5-5-10 0-5 0-5-5-10l-5-5 0-10 0-10 15-15 15-15 0-5c0-7 3-10 10-10 5 0 5 0 10-5l5-5 10 0 10 0 5 5c5 5 5 5 10 5l5 0 18 17 17 18 0 10c0 15 0 15 20 15 18 0 21 1 21 10 0 9-3 10-21 10-18 0-20 1-20 10 0 8-12 20-20 20-5 0-5 0-10 5l-5 5-25 0-25 0-5-5z"/>
		<path d="M5667 1632c-11-11-11-14 0-24l8-8 10 0c14 0 15 1 15 15l0 10-7 7-8 8-5 0c-5 0-6 0-13-8z"/>
		<path d="M5930 1635c-5-5-5-5-10-5l-5 0-18-17-17-18 0-10c0-15 1-15-25-15l-20 0-10 10-10 10-5 0c-5 0-5 0-10 5-5 5-5 5-10 5-5 0-5 0-10 5-5 5-5 5-10 5-5 0-5 0-10 5l-5 5-15 0c-18 0-20-1-20-10l0-5 22-22 23-23 10 0 10 0 5-5 5-5 10 0 10 0 15-15 15-15 10 0c11 0 9-1 22 12 4 5 7 7 8 7 1 0 4-2 8-7 12-13 11-12 17-12l5 0 10-10 10-10 25 0 25 0 13 12 12 13 0 10 0 10 5 5 5 5 0 20 0 20-12 13-13 12-5 0-5 0-10 10-10 10-15 0-15 0-5-5z"/>
		<path d="M3880 1625l-5-5-15 0c-20 0-20 0-20-15 0-13-2-15-10-15-9 0-10-2-10-20l0-15 17-18 18-17 5 0 5 0 10-10 10-10 10 0 10 0 5 5c5 5 5 5 10 5l5 0 13 12 12 13 0 10 0 10 5 5 5 5 0 15 0 15-5 5c-5 5-5 5-5 10 0 8-2 10-15 10l-10 0-5 5-5 5-15 0-15 0-5-5z"/>
		<path d="M6080 1605l-15-15-5 0c-7 0-10-3-10-9 0-6-1-8-5-10-5-4-6-8 0-12 2-1 5-4 6-6l4-3 15 0 15 0 18 17 17 18 0 5c0 5 0 6 5 10 13 12 7 20-15 20l-15 0-15-15z"/>
		<path d="M3991 1607c-1-2-4-5-6-6-6-4-5-8 0-12 4-2 5-4 5-10 0-7 13-19 20-19 5 0 6 0 10-5 4-5 5-5 10-5l5 0 10 10 10 10 5 0c8 0 21 13 21 20 0 5-1 5-8 12l-8 8-35 0-35 0-4-3z"/>
		<path d="M1995 1460l-10-10-5 0-5 0-12-12-12-12-1-36 0-35 2-3c2-2 4-2 8-2l5 0 10-10 10-10 30 0 30 0 5 5c5 5 5 5 10 5 8 0 10 2 10 15l0 10 5 5c5 5 5 5 5 10 0 5 0 5 5 10l5 5 0 10 0 10-10 10-10 10 0 5c0 8-12 20-20 20-5 0-5 0-10 5l-5 5-15 0-15 0-10-10z"/>
		<path d="M2360 1445c-4-5-5-5-10-5-5 0-5 0-10-5-5-5-5-5-10-5-7 0-10-3-10-10 0-5 0-5-7-13l-8-7-75 0-75 0-4 5c-2 2-5 4-6 4-1 0-4-2-6-4l-4-5-10 0-10 0-8-8c-9-9-10-15-5-20l3-2 35 0 35 0 5-5 5-5 10 0 10 0 5 5 5 5 10 0 10 0 5-5c5-5 5-5 10-5 5 0 5 0 10-5l5-5 10 0 10 0 4 5c6 6 7 6 16-4 5-6 5-6 5-11 0-8 12-20 20-20 5 0 5 0 10-5l5-5 15 0 15 0 5 5c5 5 5 5 10 5 5 0 5 0 10 5 5 5 5 5 10 5 5 0 5 0 13 7l7 8 0 35 0 35-7 8c-8 7-8 7-13 7-5 0-5 0-10 5-5 5-5 5-10 5-5 0-6 0-10 5-4 5-5 5-10 5-5 0-6 0-10-5z"/>
		<path d="M1862 1408c-2-3-2-4-2-13l0-10 7-8 8-7 20 0 20 0 12 12c13 13 14 16 12 22-2 6-2 6-39 6l-35 0-3-2z"/>
		<path d="M1040 1355c-4-5-5-5-10-5l-5 0-13-13c-12-12-12-12-12-17l0-5 15-15 15-15 0-15 0-15-5-5c-8-7-8-13 0-20 8-7 8-13 0-20l-5-5 0-15 0-15 5-5c5-5 5-5 5-10 0-5 0-5-5-10l-5-5 0-25 0-25 5-5 5-5 0-10 0-10-10-10-10-10 0-15 0-15-5-5c-5-5-5-5-5-10 0-5 0-5 5-10 5-4 5-5 5-10 0-8 2-10 15-10l10 0 5-5c7-8 13-8 23 3l7 7 0 90 0 90 7 8 8 7 40 0 40 0 5 5 5 5 10 0c19 0 22 9 8 22l-8 8-50 0-50 0-8 7-7 8 0 40 0 40 2 3 3 2 40 0 40 0 5-5c5-5 5-5 10-5 5 0 5 0 10-5l5-5 10 0 10 0 5 5c4 5 5 5 10 5 6 0 6 0 10-5 4-5 4-5 10-5 5 0 6 0 10 5 4 5 5 5 10 5 5 0 5 0 13 7l7 8 0 10c0 9 0 10-2 13l-3 2-100 0-100 0-10 10-10 10-5 0c-5 0-6 0-10-5z"/>
		<path d="M1982 1298c-2-3-2-4-2-13l0-10-5-5-5-5 0-20 0-20 7-8 8-7 10 0 10 0 8 7 7 8 0 35 0 35-2 3c-3 2-3 2-18 2-15 0-15 0-18-2z"/>
		<path d="M7899 1265l-4-5-10 0-10 0-4-4c-2-3-5-5-6-5-1 0-4 2-6 5l-4 4-110 0-110 0-13-12-12-13 0-15 0-15-5-5-5-5 0-10 0-10 12-13 13-12 5 0c5 0 5 0 10-5l5-5 180 0 180 0 3-2c8-7-6-28-18-28l-5 0-55-55-55-55-5 0-5 0-13-12-12-13 0-5c0-7-3-10-10-10l-5 0-10-10-10-10-5 0-5 0-33-33-32-32 0-5c0-5 0-5 10-15l10-10 0-5 0-5 10-10 10-10 0-5c0-9 2-10 20-10l15 0 4-4c5-6 7-6 12 0 4 4 5 4 9 4 5 0 6 0 10 5l5 5 15 0c22 0 28 8 15 20-9 8-8 12 2 22l8 8 10 0 10 0 18 17 17 18 0 5c0 8 12 20 20 20l5 0 40 40 40 40 5 0 5 0 20 20 20 20 5 0c5 0 5 0 10 5 5 5 5 5 10 5l5 0 10 10 10 10 5 0c8 0 10 2 10 15l0 10-7 8-8 7-10 0-10 0-20 20-20 20-20 0c-23 0-24 0-24 5 0 2 1 4 4 6 3 2 7 6 10 9l5 5 0 35 0 35-7 8-8 7-65 0-65 0-4 5c-2 2-5 4-6 4-1 0-4-2-6-4z"/>
		<path d="M6880 1225l-5-5-20 0c-26 0-25 1-25-20 0-15 0-15 2-18l3-2 115 0 115 0 3-2c5-5 4-11-5-20l-8-8-10 0-10 0-45-45-45-45-5 0-5 0-10-10-10-10-10 0-10 0-10-10-10-10-15 0-15 0-8-7-7-8 0-10 0-10-5-5-5-5 0-10 0-10-10-10-10-10 0-15 0-15 7-8 8-7 40 0 40 0 5 5c4 5 5 5 10 5 5 0 6 0 10-5l5-5 15 0 15 0 5 5 5 5 25 0 25 0 5 5 5 5 15 0 15 0 5-5 5-5 40 0 40 0 8 7 7 8 0 10 0 10-7 8c-8 7-8 7-13 7-5 0-5 0-10 5l-5 5-75 0-75 0-5-5-5-5-15 0-15 0-4-4c-8-10-12-6-11 10l0 9 13 13 12 12 5 0 5 0 23 22 22 23 0 5c0 7 3 10 10 10l5 0 48 47 47 48 0 5 0 5 15 15 16 15 0 5c0 5-1 5-6 10-5 4-5 5-5 10 0 5 0 5-7 13l-8 7-115 0-115 0-5-5z"/>
		<path d="M4147 1213l-7-8 0-10 0-10-10-10-10-10 0-5 0-5-35-35-35-35 0-5 0-5-25-25-25-25 0-5c0-5 0-5-5-10-5-5-5-5-5-10 0-5 0-5-7-12l-8-8-5 0c-7 0-10 3-10 10l0 5-20 20-20 20 0 5 0 5-15 15-15 15 0 5 0 5-12 13-13 12-5 0-5 0-23 22-22 23 0 5 0 5-10 10-10 10 0 5c0 5 0 5-7 13l-8 7-10 0-10 0-10-10-10-10-5 0-5 0-18-17-17-18 0-10 0-10 10-10 10-10 0-5 0-5 30-30 30-30 0-5c0-5 0-5 5-10 5-5 5-5 5-10l0-5 20-20 20-20 0-5 0-5 15-15 15-15 0-5 0-5 10-10 10-10 0-10 0-10 7-8 8-7 15 0 15 0 30 30 30 30 5 0 5 0 10-10 10-10 5 0c7 0 10-3 10-10 0-8 2-10 15-10l10 0 18 17 17 18 0 5 0 5 15 15 15 15 0 5 0 5 10 10 10 10 0 5 0 5 10 10 10 10 0 5c0 5 0 5 5 11 7 7 8 8 11 8 4 0 4-1 4-39l0-35 2-2 3-3 20 0c20 0 20 0 23 2l2 3 0 45 0 45-7 7-8 8-5 0c-6 0-7 0-9-5-3-4-5-5-7-5-5 2-5 8 0 10 5 2 6 4 6 10 0 9 2 10 20 10l15 0 8 7 7 8 0 10 0 10-5 5c-5 5-5 5-5 10l0 5-20 20-20 20 0 5c0 5 0 5-7 13l-8 7-10 0-10 0-8-7z"/>
		<path d="M1980 1185c-5-5-5-5-10-5-7 0-10-3-10-10 0-5 0-6-5-10-5-5-5-5-5-10 0-5 0-5 5-10l5-5 0-10c0-10 0-11-6-15-5-3-4-7 1-11 4-2 5-4 5-10 0-4 1-5 12-16l13-13 5 0c5 0 6 0 10 5l5 5 15 0 15 0 5-5 5-5 15 0 15 0 4 5c2 2 5 4 6 4 1 0 4-2 6-4l4-5 85 0 85 0 5 5c5 5 5 5 10 5 4 0 6 0 8 2l2 3 0 30 0 30 5 5 5 5 0 15c0 15 0 15-2 18l-3 2-25 0-25 0-5 5-5 5-125 0-125 0-5-5z"/>
		<path d="M5727 1143l-7-8 0-55 0-55 7-8 8-7 75 0 75 0 4 5c5 6 7 5 14-3 10-10 10-15 2-22-9-8-8-12 2-22l8-8 15 0 15 0 8 7 7 8 0 15c0 15 0 15 2 18l3 2 65 0 65 0 5 5c5 5 5 5 10 5 5 0 5 0 10 5l5 5 20 0c20 0 20 0 23 2l2 3 0 55 0 55-2 3c-3 2-4 2-13 2l-10 0-5-5-5-5-10 0-10 0-5-5c-4-5-5-5-10-5-5 0-6 0-10 5l-5 5-120 0-120 0-4 5c-2 2-5 4-6 4-1 0-4-2-6-4l-4-5-25 0-25 0-5 5-5 5-15 0-15 0-8-7z"/>
		<path d="M3722 1068c-1-1-4-4-7-7l-5-6 0-10 0-10-5-5-5-5 0-20 0-20 7-8c8-7 8-7 13-7 4 0 5 0 9-4 6-7 7-7 16 3l5 6 0 30 0 30-5 5c-5 5-5 5-5 10 0 8-13 22-18 18z"/>
		<path d="M3007 1043l-7-8 0-10 0-10 5-5 5-5 0-25 0-25-5-5c-5-5-5-5-5-10 0-5 0-5 5-10l5-5 0-10 0-10-5-5-5-5 0-40 0-40-5-5-5-5 0-20 0-20 5-5c8-7 8-13 0-20-8-7-8-13 0-20 5-4 5-5 5-10 0-7 3-10 10-10 5 0 6 0 10-5 4-5 5-5 10-5l5 0 13 13 12 12 0 15 0 15-5 5-5 5 0 10 0 10 5 5 5 5 0 25 0 25-5 5-5 5 0 10 0 10 5 5 5 5 0 20 0 20-5 5-5 5 0 10c0 13 1 15 10 15 9 0 10-2 10-15l0-10 10-10 10-10 0-10 0-10 10-10 10-10 0-15 0-15 5-5c5-5 5-5 5-10 0-5 0-5 7-13l8-7 20 0 20 0 8 7c7 8 7 8 7 13 0 5 0 5 5 10 5 5 5 5 5 10 0 5 0 5 5 10 5 5 5 5 5 10 0 7 3 10 10 10 8 0 20 12 20 20 0 5 0 5 5 10 5 5 5 5 5 10 0 5 0 5 5 10 3 3 8 9 12 12 12 14 14 11 13-22l0-25-5-5c-8-7-8-13 0-20l5-5 0-20 0-20-5-5-5-5 0-40 0-40-5-5-5-5 0-10c0-15 0-15 20-15l15 0 4-4c5-7 7-6 14 2 4 3 9 9 12 12l5 5 0 20 0 20-5 5-5 5 0 10 0 10 5 5 5 5 0 30c0 32 0 31-6 35-2 2-3 3-3 5 0 2 1 3 3 5 6 4 6 1 6 60l0 55-5 5c-5 5-5 5-5 10 0 5 0 5 5 10 4 4 5 5 5 9 0 6 1 8 5 10 5 4 6 8 0 12-2 1-5 4-6 6l-4 3-10 0c-13 0-15-2-15-10 0-7-3-10-10-10-8 0-20-12-20-20l0-5-40-40-40-40 0-5 0-5-12-12-13-13-5 0c-7 0-10 3-10 10 0 5 0 5-5 10l-5 5 0 15c0 18-1 20-10 20-5 0-5 0-13 7l-7 8 0 10 0 10-37 38-38 37-10 0-10 0-8-7z"/>
		<path d="M5120 1035l-5-5-45 0-45 0-5-5-5-5-30 0-30 0-8-8c-7-7-7-7-7-12 0-5 0-5 7-12l8-8 20 0 20 0 5 5 5 5 15 0c15 0 15 0 18-2l2-3 0-50 0-50-5-5c-5-5-5-5-5-10 0-5 0-5 5-10l5-5 0-30 0-30-5-5c-5-5-5-5-5-10 0-5 0-5-5-10-5-5-5-5-5-10l0-5 10-10c13-13 14-18 5-24-6-4-6-8 0-12 4-2 5-4 5-10 0-4 1-5 7-12l8-7 10 0 10 0 5 5c5 5 5 5 10 5 4 0 6 0 8 2l2 3 0 45 0 45-5 5-5 5 0 15c0 16 0 16 6 20 2 2 3 3 3 5 0 2-1 3-3 5-6 4-6 4-6 25l0 20 5 5c5 5 6 5 6 10 0 5-1 5-6 10l-5 5 0 35 0 35 2 3 3 2 50 0 50 0 3 2c7 8 2 28-8 28-5 0-5 0-10 5l-5 5-10 0-10 0-5 5-5 5-10 0-10 0-5-5z"/>
		<path d="M1972 1028c-2-3-2-3-2-18 0-16 0-16-6-20-5-3-4-7 1-11 4-2 5-4 5-10 0-8 2-9 20-9l15 0 8 7 7 8 0 20 0 20-7 8-8 7-15 0c-15 0-15 0-18-2z"/>
		<path d="M3801 957c-4-7-2-26 3-26 4 0 15 11 15 14 0 6-15 17-18 12z"/>
		<path d="M3702 938c-2-3-2-3-2-18l0-15-5-5-5-5 0-15 0-15 12-13 13-12 10 0 10 0 8 7 7 8 0 40 0 40-2 3c-3 2-3 2-23 2-20 0-20 0-23-2z"/>
		<path d="M4172 938l-2-3 0-30c0-32 0-31-6-35-5-3-4-7 1-11 4-2 5-4 5-10 0-4 1-5 7-12l8-7 10 0 10 0 8 7 7 8 0 15 0 15-5 5-5 5 0 10 0 10 5 5 5 5 0 10c0 15 1 15-25 15-20 0-20 0-23-2z"/>
		<path d="M1952 898l-22-23 0-20 0-20 22-23 23-22 35 0 35 0 3 2c2 2 2 4 2 8 0 5 0 5 5 10 5 5 5 5 5 10 0 5 0 5 5 10l5 5 0 15 0 15-5 5-5 5 0 10 0 10-12 13-13 12-30 0-30 0-23-22z"/>
		<path d="M5901 917c-1-2-4-5-6-6-5-4-5-8-1-11 2-2 6-6 10-9l6-6 0-15 0-15 7-8 8-7 10 0 10 0 8 7 7 8 0 20 0 20-5 5c-5 5-5 5-5 10 0 10-1 10-25 10l-20 0-4-3z"/>
		<path d="M3082 858c-3-3-1-8 3-8 2 0 5 3 5 5 0 2-3 5-5 5-1 0-3-1-3-2z"/>
		<path d="M8030 835c-5-5-5-5-10-5l-5 0-10-10-10-10-5 0c-7 0-10-3-10-9 0-6-1-8-5-10-5-4-5-8-1-11 6-4 6-4 6-20l0-15 5-5c5-5 5-5 5-10 0-7 3-10 10-10 5 0 5 0 10-5l5-5 20 0 20 0 5 5 5 5 10 0 10 0 8 7c7 8 7 8 7 13 0 5 0 5 5 10 5 5 5 5 5 10 0 5 0 5 5 10 5 5 6 5 6 10 0 5-1 5-6 10-5 4-5 5-5 10l0 5-12 13-13 12-10 0-10 0-5 5-5 5-10 0-10 0-5-5z"/>
		<path d="M7679 835l-4-5-20 0-20 0-5-5c-5-5-5-5-10-5-7 0-10-3-10-10 0-5 0-5-5-10l-5-5 0-30 0-30 12-13 13-12 5 0c5 0 5 0 10-5l5-5 30 0 30 0 13 12 12 13 0 5c0 5 0 5 5 11 9 10 10 10 16 4l4-5 40 0 40 0 3 2c2 3 2 4 2 13 0 9 0 10-2 13l-3 2-40 0-40 0-8 7c-7 8-7 8-7 13 0 5 0 5-5 10-5 5-5 5-5 10 0 7-3 10-10 10-5 0-5 0-10 5-4 5-5 5-10 5-4 0-5 0-9 5-2 2-5 4-6 4-1 0-4-2-6-4z"/>
		<path d="M3712 818c-2-2-2-4-2-8 0-5 0-5-5-10l-5-5 0-15 0-15-5-5-5-5 0-25 0-25 7-8 8-7 10 0 10 0 8 7 7 8 0 55 0 55-2 3c-3 2-4 2-13 2-9 0-10 0-13-2z"/>
		<path d="M4172 808c-2-3-2-3-2-23l0-20-5-5c-5-5-5-5-5-10 0-5 0-5-5-10l-5-5 0-20 0-20 7-8c8-7 8-7 13-7 4 0 5 0 9-4 2-3 5-5 6-5 1 0 4 2 6 5 4 4 5 4 9 4 4 0 6 1 8 2l2 3 0 25 0 25 5 5 5 5 0 25 0 25-7 8-8 7-15 0c-15 0-15 0-18-2z"/>
		<path d="M5922 808c-1-1-4-4-7-7l-5-6 0-10 0-10-5-5c-5-5-5-5-5-10 0-5 0-5-5-10-5-5-5-5-5-10 0-5 0-5 5-10 5-4 5-5 5-10 0-5 0-5 7-13l8-7 10 0 10 0 8 7 7 8 0 40 0 40-2 3c-2 1-4 2-8 2-4 0-5 0-9 5-4 4-6 5-9 3z"/>
		<path d="M7907 782c-4-3-8-8-9-9l-3-3-15 0c-20 0-20 0-20-15 0-15 0-15 20-15l15 0 5-5 5-5 20 0 20 0 8 7 7 8 0 10c0 14-1 15-15 15-11 0-9-1-22 12-4 5-7 7-8 7-1 0-4-2-8-7z"/>
		<path d="M5912 668l-12-13 0-15 0-15 5-5c5-5 5-5 5-10 0-5 0-5 7-13l8-7 15 0c21 0 20-1 20 25l0 20-5 5-5 5 0 15c0 20 0 20-15 20l-10 0-13-12z"/>
	</g>
</svg>
