<?xml version="1.0" encoding="iso-8859-1"?>
<!-- Generator: Adobe Illustrator 19.0.0, SVG Export Plug-In . SVG Version: 6.00 Build 0)  -->
<svg version="1.1" id="Capa_1" xmlns="http://www.w3.org/2000/svg" xmlns:xlink="http://www.w3.org/1999/xlink" x="0px" y="0px"
	 viewBox="0 0 60 60" style="enable-background:new 0 0 60 60;" xml:space="preserve">
<g>
	<g>
		<path d="M59,7H31H15H1C0.4,7,0,7.4,0,8v44c0,0.6,0.4,1,1,1h58c0.6,0,1-0.4,1-1V8C60,7.4,59.6,7,59,7z M30,9v18H16V9H30z M58,51H46
			v-5h-2v5H2V9h12v19c0,0.6,0.4,1,1,1h16c0.6,0,1-0.4,1-1V9h12v15h2V9h12V51z"/>
		<rect x="18" y="11" width="2" height="2"/>
		<rect x="18" y="15" width="2" height="2"/>
		<rect x="18" y="19" width="2" height="2"/>
		<rect x="18" y="23" width="2" height="2"/>
		<rect x="26" y="11" width="2" height="2"/>
		<rect x="26" y="15" width="2" height="2"/>
		<rect x="26" y="19" width="2" height="2"/>
		<rect x="26" y="23" width="2" height="2"/>
		<path d="M51,28h-9.6l1.3-1.3l-1.4-1.4l-3,3c-0.4,0.4-0.4,1,0,1.4l3,3l1.4-1.4L41.4,30H50v3h2v-4C52,28.4,51.6,28,51,28z"/>
		<path d="M48.7,37.3l-1.4,1.4l1.3,1.3H40v-3h-2v4c0,0.6,0.4,1,1,1h9.6l-1.3,1.3l1.4,1.4l3-3c0.4-0.4,0.4-1,0-1.4L48.7,37.3z"/>
		<path d="M14,38H6c-0.6,0-1,0.4-1,1v8c0,0.6,0.4,1,1,1h8c0.6,0,1-0.4,1-1v-8C15,38.4,14.6,38,14,38z M13,46H7v-6h6V46z"/>
		<rect x="18" y="39" width="8" height="2"/>
		<rect x="18" y="44" width="14" height="2"/>
		<rect x="48" y="12" width="8" height="2"/>
		<rect x="48" y="17" width="8" height="2"/>
		<rect x="48" y="22" width="8" height="2"/>
	</g>
</g>
<g>
</g>
<g>
</g>
<g>
</g>
<g>
</g>
<g>
</g>
<g>
</g>
<g>
</g>
<g>
</g>
<g>
</g>
<g>
</g>
<g>
</g>
<g>
</g>
<g>
</g>
<g>
</g>
<g>
</g>
</svg>
